<svg xmlns="http://www.w3.org/2000/svg" xmlns:xlink="http://www.w3.org/1999/xlink" id="body_1" preserveAspectRatio="xMinYMin meet" viewBox="0 0 793 1121"><defs><clipPath id="1"><path id="" clip-rule="evenodd" transform="matrix(1 0 0 1 0 0)" d="M0 841L0 -0.9199829L0 -0.9199829L595.32 -0.9199829L595.32 -0.9199829L595.32 841L595.32 841L0 841z" /></clipPath><clipPath id="2"><path id="" clip-rule="evenodd" transform="matrix(1 0 0 1 0 0)" d="M8.871E-06 841L595.32 841L595.32 841L595.32 -0.9199829L595.32 -0.9199829L8.871E-06 -0.9199829z" /></clipPath><clipPath id="3"><path id="" clip-rule="evenodd" transform="matrix(1 0 0 1 0 0)" d="M-3.396E-06 -0.9199829L595.32 -0.9199829L595.32 -0.9199829L595.32 840.9999L595.32 840.9999L-2.2592E-05 840.9999" /></clipPath><clipPath id="4"><path id="" clip-rule="evenodd" transform="matrix(1 0 0 1 0 0)" d="M-6.96E-07 840.9996L595.32 840.9996L595.32 840.9996L595.32 -0.9203491L595.32 -0.9203491L-6.96E-07 -0.9203491z" /></clipPath><clipPath id="5"><path id="" clip-rule="evenodd" transform="matrix(1 0 0 1 0 0)" d="M-7.509E-06 -0.9199829L595.32 -0.9199829L595.32 -0.9199829L595.32 840.9999L595.32 840.9999L-4.1494E-05 840.9999" /></clipPath><clipPath id="6"><path id="" clip-rule="evenodd" transform="matrix(1 0 0 1 0 0)" d="M56.64 118.26L235.61 118.26L235.61 118.26L235.61 35.31604L235.61 35.31604L56.64 35.31604z" /></clipPath><clipPath id="7"><path id="" clip-rule="evenodd" transform="matrix(1 0 0 1 0 0)" d="M56.64 118.26L235.61 118.26L235.61 118.26L235.61 35.31604L235.61 35.31604L56.64 35.31604z" /></clipPath><clipPath id="8"><path id="" clip-rule="evenodd" transform="matrix(1 0 0 1 0 0)" d="M56.64 118.26L235.61 118.26L235.61 118.26L235.61 35.31604L235.61 35.31604L56.64 35.31604z" /></clipPath><clipPath id="9"><path id="" clip-rule="evenodd" transform="matrix(1 0 0 1 0 0)" d="M56.64 118.26L235.61 118.26L235.61 118.26L235.61 35.31604L235.61 35.31604L56.64 35.31604z" /></clipPath><clipPath id="10"><path id="" clip-rule="evenodd" transform="matrix(1 0 0 1 0 0)" d="M56.64 118.26L235.61 118.26L235.61 118.26L235.61 35.31604L235.61 35.31604L56.64 35.31604z" /></clipPath><clipPath id="11"><path id="" clip-rule="evenodd" transform="matrix(1 0 0 1 0 0)" d="M56.64 118.26L235.61 118.26L235.61 118.26L235.61 35.31604L235.61 35.31604L56.64 35.31604z" /></clipPath><clipPath id="12"><path id="" clip-rule="evenodd" transform="matrix(1 0 0 1 0 0)" d="M56.64 118.26L235.61 118.26L235.61 118.26L235.61 35.31604L235.61 35.31604L56.64 35.31604z" /></clipPath><clipPath id="13"><path id="" clip-rule="evenodd" transform="matrix(1 0 0 1 0 0)" d="M56.64 118.26L235.61 118.26L235.61 118.26L235.61 35.31604L235.61 35.31604L56.64 35.31604z" /></clipPath><clipPath id="14"><path id="" clip-rule="evenodd" transform="matrix(1 0 0 1 0 0)" d="M56.64 118.26L235.61 118.26L235.61 118.26L235.61 35.31604L235.61 35.31604L56.64 35.31604z" /></clipPath><clipPath id="15"><path id="" clip-rule="evenodd" transform="matrix(1 0 0 1 0 0)" d="M56.64 118.26L235.61 118.26L235.61 118.26L235.61 35.31604L235.61 35.31604L56.64 35.31604z" /></clipPath><clipPath id="16"><path id="" clip-rule="evenodd" transform="matrix(1 0 0 1 0 0)" d="M56.64 118.26L235.61 118.26L235.61 118.26L235.61 35.31604L235.61 35.31604L56.64 35.31604z" /></clipPath><clipPath id="17"><path id="" clip-rule="evenodd" transform="matrix(1 0 0 1 0 0)" d="M56.64 118.26L235.61 118.26L235.61 118.26L235.61 35.31604L235.61 35.31604L56.64 35.31604z" /></clipPath><clipPath id="18"><path id="" clip-rule="evenodd" transform="matrix(1 0 0 1 0 0)" d="M267.41 93.53998L406.51 93.53998L406.51 93.53998L406.51 18.03601L406.51 18.03601L267.41 18.03601z" /></clipPath><clipPath id="19"><path id="" clip-rule="evenodd" transform="matrix(1 0 0 1 0 0)" d="M267.41 93.53998L406.51 93.53998L406.51 93.53998L406.51 18.03601L406.51 18.03601L267.41 18.03601z" /></clipPath><clipPath id="20"><path id="" clip-rule="evenodd" transform="matrix(1 0 0 1 0 0)" d="M267.41 93.53998L406.51 93.53998L406.51 93.53998L406.51 18.03601L406.51 18.03601L267.41 18.03601z" /></clipPath><clipPath id="21"><path id="" clip-rule="evenodd" transform="matrix(1 0 0 1 0 0)" d="M267.41 93.53998L406.51 93.53998L406.51 93.53998L406.51 18.03601L406.51 18.03601L267.41 18.03601z" /></clipPath><clipPath id="22"><path id="" clip-rule="evenodd" transform="matrix(1 0 0 1 0 0)" d="M267.41 93.53998L406.51 93.53998L406.51 93.53998L406.51 18.03601L406.51 18.03601L267.41 18.03601z" /></clipPath><clipPath id="23"><path id="" clip-rule="evenodd" transform="matrix(1 0 0 1 0 0)" d="M267.41 93.53998L406.51 93.53998L406.51 93.53998L406.51 18.03601L406.51 18.03601L267.41 18.03601z" /></clipPath><clipPath id="24"><path id="" clip-rule="evenodd" transform="matrix(1 0 0 1 0 0)" d="M267.41 93.53998L406.51 93.53998L406.51 93.53998L406.51 18.03601L406.51 18.03601L267.41 18.03601z" /></clipPath><clipPath id="25"><path id="" clip-rule="evenodd" transform="matrix(1 0 0 1 0 0)" d="M267.41 93.53998L406.51 93.53998L406.51 93.53998L406.51 18.03601L406.51 18.03601L267.41 18.03601z" /></clipPath><clipPath id="26"><path id="" clip-rule="evenodd" transform="matrix(1 0 0 1 0 0)" d="M267.41 93.53998L406.51 93.53998L406.51 93.53998L406.51 18.03601L406.51 18.03601L267.41 18.03601z" /></clipPath><clipPath id="27"><path id="" clip-rule="evenodd" transform="matrix(1 0 0 1 0 0)" d="M267.41 93.53998L406.51 93.53998L406.51 93.53998L406.51 18.03601L406.51 18.03601L267.41 18.03601z" /></clipPath><clipPath id="28"><path id="" clip-rule="evenodd" transform="matrix(1 0 0 1 0 0)" d="M267.41 93.53998L406.51 93.53998L406.51 93.53998L406.51 18.03601L406.51 18.03601L267.41 18.03601z" /></clipPath><clipPath id="29"><path id="" clip-rule="evenodd" transform="matrix(1 0 0 1 0 0)" d="M267.41 93.53998L406.51 93.53998L406.51 93.53998L406.51 18.03601L406.51 18.03601L267.41 18.03601z" /></clipPath><clipPath id="30"><path id="" clip-rule="evenodd" transform="matrix(1 0 0 1 0 0)" d="M267.41 93.53998L406.51 93.53998L406.51 93.53998L406.51 18.03601L406.51 18.03601L267.41 18.03601z" /></clipPath><clipPath id="31"><path id="" clip-rule="evenodd" transform="matrix(1 0 0 1 0 0)" d="M267.41 93.53998L406.51 93.53998L406.51 93.53998L406.51 18.03601L406.51 18.03601L267.41 18.03601z" /></clipPath><clipPath id="32"><path id="" clip-rule="evenodd" transform="matrix(1 0 0 1 0 0)" d="M267.41 93.53998L406.51 93.53998L406.51 93.53998L406.51 18.03601L406.51 18.03601L267.41 18.03601z" /></clipPath><clipPath id="33"><path id="" clip-rule="evenodd" transform="matrix(1 0 0 1 0 0)" d="M267.41 93.53998L406.51 93.53998L406.51 93.53998L406.51 18.03601L406.51 18.03601L267.41 18.03601z" /></clipPath><clipPath id="34"><path id="" clip-rule="evenodd" transform="matrix(1 0 0 1 0 0)" d="M-6.22E-07 840.9999L595.32 840.9999L595.32 840.9999L595.32 -0.920105L595.32 -0.920105L-6.22E-07 -0.920105z" /></clipPath><clipPath id="35"><path id="" clip-rule="evenodd" transform="matrix(1 0 0 1 0 0)" d="M260.52 260.56L373.92 260.56L373.92 260.56L373.92 226.48L373.92 226.48L260.52 226.48z" /></clipPath><clipPath id="36"><path id="" clip-rule="evenodd" transform="matrix(1 0 0 1 0 0)" d="M260.52 260.56L373.92 260.56L373.92 260.56L373.92 226.48L373.92 226.48L260.52 226.48z" /></clipPath><clipPath id="37"><path id="" clip-rule="evenodd" transform="matrix(1 0 0 1 0 0)" d="M8.871E-06 841L595.32 841L595.32 841L595.32 -0.9199829L595.32 -0.9199829L8.871E-06 -0.9199829z" /></clipPath><clipPath id="38"><path id="" clip-rule="evenodd" transform="matrix(1 0 0 1 0 0)" d="M-7.75E-07 840.9999L595.32 840.9999L595.32 840.9999L595.32 -0.920105L595.32 -0.920105L-7.75E-07 -0.920105z" /></clipPath><clipPath id="39"><path id="" clip-rule="evenodd" transform="matrix(1 0 0 1 0 0)" d="M265.2 627.16L336.36 627.16L336.36 627.16L336.36 597.76L336.36 597.76L265.2 597.76z" /></clipPath><clipPath id="40"><path id="" clip-rule="evenodd" transform="matrix(1 0 0 1 0 0)" d="M265.2 627.16L336.36 627.16L336.36 627.16L336.36 597.76L336.36 597.76L265.2 597.76z" /></clipPath><clipPath id="41"><path id="" clip-rule="evenodd" transform="matrix(1 0 0 1 0 0)" d="M265.2 627.16L336.36 627.16L336.36 627.16L336.36 597.76L336.36 597.76L265.2 597.76z" /></clipPath><clipPath id="42"><path id="" clip-rule="evenodd" transform="matrix(1 0 0 1 0 0)" d="M36.6 238.5L573.48 238.5L573.48 238.5L573.48 143.7L573.48 143.7L36.6 143.7z" /></clipPath><clipPath id="43"><path id="" clip-rule="evenodd" transform="matrix(1 0 0 1 0 0)" d="M36.6 238.5L573.48 238.5L573.48 238.5L573.48 143.7L573.48 143.7L36.6 143.7z" /></clipPath><clipPath id="44"><path id="" clip-rule="evenodd" transform="matrix(1 0 0 1 0 0)" d="M36.6 238.5L573.48 238.5L573.48 238.5L573.48 143.7L573.48 143.7L36.6 143.7z" /></clipPath><clipPath id="45"><path id="" clip-rule="evenodd" transform="matrix(1 0 0 1 0 0)" d="M36.6 238.5L573.48 238.5L573.48 238.5L573.48 143.7L573.48 143.7L36.6 143.7z" /></clipPath><clipPath id="46"><path id="" clip-rule="evenodd" transform="matrix(1 0 0 1 0 0)" d="M36.6 238.5L573.48 238.5L573.48 238.5L573.48 143.7L573.48 143.7L36.6 143.7z" /></clipPath><clipPath id="47"><path id="" clip-rule="evenodd" transform="matrix(1 0 0 1 0 0)" d="M36.6 238.5L573.48 238.5L573.48 238.5L573.48 143.7L573.48 143.7L36.6 143.7z" /></clipPath><clipPath id="48"><path id="" clip-rule="evenodd" transform="matrix(1 0 0 1 0 0)" d="M36.6 238.5L573.48 238.5L573.48 238.5L573.48 143.7L573.48 143.7L36.6 143.7z" /></clipPath><clipPath id="49"><path id="" clip-rule="evenodd" transform="matrix(1 0 0 1 0 0)" d="M36.6 238.5L573.48 238.5L573.48 238.5L573.48 143.7L573.48 143.7L36.6 143.7z" /></clipPath><clipPath id="50"><path id="" clip-rule="evenodd" transform="matrix(1 0 0 1 0 0)" d="M36.6 238.5L573.48 238.5L573.48 238.5L573.48 143.7L573.48 143.7L36.6 143.7z" /></clipPath><clipPath id="51"><path id="" clip-rule="evenodd" transform="matrix(1 0 0 1 0 0)" d="M36.6 238.5L573.48 238.5L573.48 238.5L573.48 143.7L573.48 143.7L36.6 143.7z" /></clipPath><clipPath id="52"><path id="" clip-rule="evenodd" transform="matrix(1 0 0 1 0 0)" d="M36.6 238.5L573.48 238.5L573.48 238.5L573.48 143.7L573.48 143.7L36.6 143.7z" /></clipPath><clipPath id="53"><path id="" clip-rule="evenodd" transform="matrix(1 0 0 1 0 0)" d="M36.6 238.5L573.48 238.5L573.48 238.5L573.48 143.7L573.48 143.7L36.6 143.7z" /></clipPath><clipPath id="54"><path id="" clip-rule="evenodd" transform="matrix(1 0 0 1 0 0)" d="M36.6 238.5L573.48 238.5L573.48 238.5L573.48 143.7L573.48 143.7L36.6 143.7z" /></clipPath><clipPath id="55"><path id="" clip-rule="evenodd" transform="matrix(1 0 0 1 0 0)" d="M36.6 238.5L573.48 238.5L573.48 238.5L573.48 143.7L573.48 143.7L36.6 143.7z" /></clipPath><clipPath id="56"><path id="" clip-rule="evenodd" transform="matrix(1 0 0 1 0 0)" d="M36.6 238.5L573.48 238.5L573.48 238.5L573.48 143.7L573.48 143.7L36.6 143.7z" /></clipPath><clipPath id="57"><path id="" clip-rule="evenodd" transform="matrix(1 0 0 1 0 0)" d="M36.6 238.5L573.48 238.5L573.48 238.5L573.48 143.7L573.48 143.7L36.6 143.7z" /></clipPath><clipPath id="58"><path id="" clip-rule="evenodd" transform="matrix(1 0 0 1 0 0)" d="M36.6 238.5L573.48 238.5L573.48 238.5L573.48 143.7L573.48 143.7L36.6 143.7z" /></clipPath><clipPath id="59"><path id="" clip-rule="evenodd" transform="matrix(1 0 0 1 0 0)" d="M36.6 238.5L573.48 238.5L573.48 238.5L573.48 143.7L573.48 143.7L36.6 143.7z" /></clipPath><clipPath id="60"><path id="" clip-rule="evenodd" transform="matrix(1 0 0 1 0 0)" d="M36.6 238.5L573.48 238.5L573.48 238.5L573.48 143.7L573.48 143.7L36.6 143.7z" /></clipPath><clipPath id="61"><path id="" clip-rule="evenodd" transform="matrix(1 0 0 1 0 0)" d="M36.6 238.5L573.48 238.5L573.48 238.5L573.48 143.7L573.48 143.7L36.6 143.7z" /></clipPath><clipPath id="62"><path id="" clip-rule="evenodd" transform="matrix(1 0 0 1 0 0)" d="M36.6 238.5L573.48 238.5L573.48 238.5L573.48 143.7L573.48 143.7L36.6 143.7z" /></clipPath><clipPath id="63"><path id="" clip-rule="evenodd" transform="matrix(1 0 0 1 0 0)" d="M36.6 238.5L573.48 238.5L573.48 238.5L573.48 143.7L573.48 143.7L36.6 143.7z" /></clipPath><clipPath id="64"><path id="" clip-rule="evenodd" transform="matrix(1 0 0 1 0 0)" d="M36.6 238.5L573.48 238.5L573.48 238.5L573.48 143.7L573.48 143.7L36.6 143.7z" /></clipPath><clipPath id="65"><path id="" clip-rule="evenodd" transform="matrix(1 0 0 1 0 0)" d="M36.6 238.5L573.48 238.5L573.48 238.5L573.48 143.7L573.48 143.7L36.6 143.7z" /></clipPath><clipPath id="66"><path id="" clip-rule="evenodd" transform="matrix(1 0 0 1 0 0)" d="M36.6 238.5L573.48 238.5L573.48 238.5L573.48 143.7L573.48 143.7L36.6 143.7z" /></clipPath><clipPath id="67"><path id="" clip-rule="evenodd" transform="matrix(1 0 0 1 0 0)" d="M36.6 238.5L573.48 238.5L573.48 238.5L573.48 143.7L573.48 143.7L36.6 143.7z" /></clipPath><clipPath id="68"><path id="" clip-rule="evenodd" transform="matrix(1 0 0 1 0 0)" d="M36.6 238.5L573.48 238.5L573.48 238.5L573.48 143.7L573.48 143.7L36.6 143.7z" /></clipPath><clipPath id="69"><path id="" clip-rule="evenodd" transform="matrix(1 0 0 1 0 0)" d="M36.6 238.5L573.48 238.5L573.48 238.5L573.48 143.7L573.48 143.7L36.6 143.7z" /></clipPath><clipPath id="70"><path id="" clip-rule="evenodd" transform="matrix(1 0 0 1 0 0)" d="M36.6 238.5L573.48 238.5L573.48 238.5L573.48 143.7L573.48 143.7L36.6 143.7z" /></clipPath><clipPath id="71"><path id="" clip-rule="evenodd" transform="matrix(1 0 0 1 0 0)" d="M36.6 238.5L573.48 238.5L573.48 238.5L573.48 143.7L573.48 143.7L36.6 143.7z" /></clipPath><clipPath id="72"><path id="" clip-rule="evenodd" transform="matrix(1 0 0 1 0 0)" d="M36.6 238.5L573.48 238.5L573.48 238.5L573.48 143.7L573.48 143.7L36.6 143.7z" /></clipPath><clipPath id="73"><path id="" clip-rule="evenodd" transform="matrix(1 0 0 1 0 0)" d="M36.6 238.5L573.48 238.5L573.48 238.5L573.48 143.7L573.48 143.7L36.6 143.7z" /></clipPath><clipPath id="74"><path id="" clip-rule="evenodd" transform="matrix(1 0 0 1 0 0)" d="M36.6 238.5L573.48 238.5L573.48 238.5L573.48 143.7L573.48 143.7L36.6 143.7z" /></clipPath><clipPath id="75"><path id="" clip-rule="evenodd" transform="matrix(1 0 0 1 0 0)" d="M36.6 238.5L573.48 238.5L573.48 238.5L573.48 143.7L573.48 143.7L36.6 143.7z" /></clipPath><clipPath id="76"><path id="" clip-rule="evenodd" transform="matrix(1 0 0 1 0 0)" d="M36.6 238.5L573.48 238.5L573.48 238.5L573.48 143.7L573.48 143.7L36.6 143.7z" /></clipPath><clipPath id="77"><path id="" clip-rule="evenodd" transform="matrix(1 0 0 1 0 0)" d="M36.6 238.5L573.48 238.5L573.48 238.5L573.48 143.7L573.48 143.7L36.6 143.7z" /></clipPath><clipPath id="78"><path id="" clip-rule="evenodd" transform="matrix(1 0 0 1 0 0)" d="M36.6 238.5L573.48 238.5L573.48 238.5L573.48 143.7L573.48 143.7L36.6 143.7z" /></clipPath><clipPath id="79"><path id="" clip-rule="evenodd" transform="matrix(1 0 0 1 0 0)" d="M36.6 238.5L573.48 238.5L573.48 238.5L573.48 143.7L573.48 143.7L36.6 143.7z" /></clipPath><clipPath id="80"><path id="" clip-rule="evenodd" transform="matrix(1 0 0 1 0 0)" d="M36.6 238.5L573.48 238.5L573.48 238.5L573.48 143.7L573.48 143.7L36.6 143.7z" /></clipPath><clipPath id="81"><path id="" clip-rule="evenodd" transform="matrix(1 0 0 1 0 0)" d="M36.6 238.5L573.48 238.5L573.48 238.5L573.48 143.7L573.48 143.7L36.6 143.7z" /></clipPath><clipPath id="82"><path id="" clip-rule="evenodd" transform="matrix(1 0 0 1 0 0)" d="M36.6 238.5L573.48 238.5L573.48 238.5L573.48 143.7L573.48 143.7L36.6 143.7z" /></clipPath><clipPath id="83"><path id="" clip-rule="evenodd" transform="matrix(1 0 0 1 0 0)" d="M36.6 238.5L573.48 238.5L573.48 238.5L573.48 143.7L573.48 143.7L36.6 143.7z" /></clipPath><clipPath id="84"><path id="" clip-rule="evenodd" transform="matrix(1 0 0 1 0 0)" d="M36.6 238.5L573.48 238.5L573.48 238.5L573.48 143.7L573.48 143.7L36.6 143.7z" /></clipPath><clipPath id="85"><path id="" clip-rule="evenodd" transform="matrix(1 0 0 1 0 0)" d="M36.6 238.5L573.48 238.5L573.48 238.5L573.48 143.7L573.48 143.7L36.6 143.7z" /></clipPath><clipPath id="86"><path id="" clip-rule="evenodd" transform="matrix(1 0 0 1 0 0)" d="M36.6 238.5L573.48 238.5L573.48 238.5L573.48 143.7L573.48 143.7L36.6 143.7z" /></clipPath><clipPath id="87"><path id="" clip-rule="evenodd" transform="matrix(1 0 0 1 0 0)" d="M36.6 238.5L573.48 238.5L573.48 238.5L573.48 143.7L573.48 143.7L36.6 143.7z" /></clipPath><clipPath id="88"><path id="" clip-rule="evenodd" transform="matrix(1 0 0 1 0 0)" d="M36.6 238.5L573.48 238.5L573.48 238.5L573.48 143.7L573.48 143.7L36.6 143.7z" /></clipPath><clipPath id="89"><path id="" clip-rule="evenodd" transform="matrix(1 0 0 1 0 0)" d="M36.6 238.5L573.48 238.5L573.48 238.5L573.48 143.7L573.48 143.7L36.6 143.7z" /></clipPath><clipPath id="90"><path id="" clip-rule="evenodd" transform="matrix(1 0 0 1 0 0)" d="M36.6 238.5L573.48 238.5L573.48 238.5L573.48 143.7L573.48 143.7L36.6 143.7z" /></clipPath><clipPath id="91"><path id="" clip-rule="evenodd" transform="matrix(1 0 0 1 0 0)" d="M36.6 238.5L573.48 238.5L573.48 238.5L573.48 143.7L573.48 143.7L36.6 143.7z" /></clipPath><clipPath id="92"><path id="" clip-rule="evenodd" transform="matrix(1 0 0 1 0 0)" d="M36.6 238.5L573.48 238.5L573.48 238.5L573.48 143.7L573.48 143.7L36.6 143.7z" /></clipPath><clipPath id="93"><path id="" clip-rule="evenodd" transform="matrix(1 0 0 1 0 0)" d="M36.6 238.5L573.48 238.5L573.48 238.5L573.48 143.7L573.48 143.7L36.6 143.7z" /></clipPath><clipPath id="94"><path id="" clip-rule="evenodd" transform="matrix(1 0 0 1 0 0)" d="M36.6 238.5L573.48 238.5L573.48 238.5L573.48 143.7L573.48 143.7L36.6 143.7z" /></clipPath><clipPath id="95"><path id="" clip-rule="evenodd" transform="matrix(1 0 0 1 0 0)" d="M36.6 238.5L573.48 238.5L573.48 238.5L573.48 143.7L573.48 143.7L36.6 143.7z" /></clipPath><clipPath id="96"><path id="" clip-rule="evenodd" transform="matrix(1 0 0 1 0 0)" d="M-1.1842E-05 840.9998L595.32 840.9998L595.32 840.9998L595.32 -0.9202271L595.32 -0.9202271L-1.1842E-05 -0.9202271z" /></clipPath><clipPath id="97"><path id="" clip-rule="evenodd" transform="matrix(1 0 0 1 0 0)" d="M36 387.93L559.18 387.93L559.18 387.93L559.18 273.93L559.18 273.93L36 273.93z" /></clipPath><clipPath id="98"><path id="" clip-rule="evenodd" transform="matrix(1 0 0 1 0 0)" d="M36 387.93L559.18 387.93L559.18 387.93L559.18 273.93L559.18 273.93L36 273.93z" /></clipPath><clipPath id="99"><path id="" clip-rule="evenodd" transform="matrix(1 0 0 1 0 0)" d="M36 387.93L559.18 387.93L559.18 387.93L559.18 273.93L559.18 273.93L36 273.93z" /></clipPath><clipPath id="100"><path id="" clip-rule="evenodd" transform="matrix(1 0 0 1 0 0)" d="M36 387.93L559.18 387.93L559.18 387.93L559.18 273.93L559.18 273.93L36 273.93z" /></clipPath><clipPath id="101"><path id="" clip-rule="evenodd" transform="matrix(1 0 0 1 0 0)" d="M36 387.93L559.18 387.93L559.18 387.93L559.18 273.93L559.18 273.93L36 273.93z" /></clipPath><clipPath id="102"><path id="" clip-rule="evenodd" transform="matrix(1 0 0 1 0 0)" d="M36 387.93L559.18 387.93L559.18 387.93L559.18 273.93L559.18 273.93L36 273.93z" /></clipPath><clipPath id="103"><path id="" clip-rule="evenodd" transform="matrix(1 0 0 1 0 0)" d="M36 387.93L559.18 387.93L559.18 387.93L559.18 273.93L559.18 273.93L36 273.93z" /></clipPath><clipPath id="104"><path id="" clip-rule="evenodd" transform="matrix(1 0 0 1 0 0)" d="M36 387.93L559.18 387.93L559.18 387.93L559.18 273.93L559.18 273.93L36 273.93z" /></clipPath><clipPath id="105"><path id="" clip-rule="evenodd" transform="matrix(1 0 0 1 0 0)" d="M36 387.93L559.18 387.93L559.18 387.93L559.18 273.93L559.18 273.93L36 273.93z" /></clipPath><clipPath id="106"><path id="" clip-rule="evenodd" transform="matrix(1 0 0 1 0 0)" d="M36 387.93L559.18 387.93L559.18 387.93L559.18 273.93L559.18 273.93L36 273.93z" /></clipPath><clipPath id="107"><path id="" clip-rule="evenodd" transform="matrix(1 0 0 1 0 0)" d="M36 387.93L559.18 387.93L559.18 387.93L559.18 273.93L559.18 273.93L36 273.93z" /></clipPath><clipPath id="108"><path id="" clip-rule="evenodd" transform="matrix(1 0 0 1 0 0)" d="M36 387.93L559.18 387.93L559.18 387.93L559.18 273.93L559.18 273.93L36 273.93z" /></clipPath><clipPath id="109"><path id="" clip-rule="evenodd" transform="matrix(1 0 0 1 0 0)" d="M36 387.93L559.18 387.93L559.18 387.93L559.18 273.93L559.18 273.93L36 273.93z" /></clipPath><clipPath id="110"><path id="" clip-rule="evenodd" transform="matrix(1 0 0 1 0 0)" d="M36 387.93L559.18 387.93L559.18 387.93L559.18 273.93L559.18 273.93L36 273.93z" /></clipPath><clipPath id="111"><path id="" clip-rule="evenodd" transform="matrix(1 0 0 1 0 0)" d="M36 387.93L559.18 387.93L559.18 387.93L559.18 273.93L559.18 273.93L36 273.93z" /></clipPath><clipPath id="112"><path id="" clip-rule="evenodd" transform="matrix(1 0 0 1 0 0)" d="M36 387.93L559.18 387.93L559.18 387.93L559.18 273.93L559.18 273.93L36 273.93z" /></clipPath><clipPath id="113"><path id="" clip-rule="evenodd" transform="matrix(1 0 0 1 0 0)" d="M36 387.93L559.18 387.93L559.18 387.93L559.18 273.93L559.18 273.93L36 273.93z" /></clipPath><clipPath id="114"><path id="" clip-rule="evenodd" transform="matrix(1 0 0 1 0 0)" d="M36 387.93L559.18 387.93L559.18 387.93L559.18 273.93L559.18 273.93L36 273.93z" /></clipPath><clipPath id="115"><path id="" clip-rule="evenodd" transform="matrix(1 0 0 1 0 0)" d="M36 387.93L559.18 387.93L559.18 387.93L559.18 273.93L559.18 273.93L36 273.93z" /></clipPath><clipPath id="116"><path id="" clip-rule="evenodd" transform="matrix(1 0 0 1 0 0)" d="M36 387.93L559.18 387.93L559.18 387.93L559.18 273.93L559.18 273.93L36 273.93z" /></clipPath><clipPath id="117"><path id="" clip-rule="evenodd" transform="matrix(1 0 0 1 0 0)" d="M36 387.93L559.18 387.93L559.18 387.93L559.18 273.93L559.18 273.93L36 273.93z" /></clipPath><clipPath id="118"><path id="" clip-rule="evenodd" transform="matrix(1 0 0 1 0 0)" d="M36 387.93L559.18 387.93L559.18 387.93L559.18 273.93L559.18 273.93L36 273.93z" /></clipPath><clipPath id="119"><path id="" clip-rule="evenodd" transform="matrix(1 0 0 1 0 0)" d="M36 387.93L559.18 387.93L559.18 387.93L559.18 273.93L559.18 273.93L36 273.93z" /></clipPath><clipPath id="120"><path id="" clip-rule="evenodd" transform="matrix(1 0 0 1 0 0)" d="M36 387.93L559.18 387.93L559.18 387.93L559.18 273.93L559.18 273.93L36 273.93z" /></clipPath><clipPath id="121"><path id="" clip-rule="evenodd" transform="matrix(1 0 0 1 0 0)" d="M36 387.93L559.18 387.93L559.18 387.93L559.18 273.93L559.18 273.93L36 273.93z" /></clipPath><clipPath id="122"><path id="" clip-rule="evenodd" transform="matrix(1 0 0 1 0 0)" d="M36 387.93L559.18 387.93L559.18 387.93L559.18 273.93L559.18 273.93L36 273.93z" /></clipPath><clipPath id="123"><path id="" clip-rule="evenodd" transform="matrix(1 0 0 1 0 0)" d="M36 387.93L559.18 387.93L559.18 387.93L559.18 273.93L559.18 273.93L36 273.93z" /></clipPath><clipPath id="124"><path id="" clip-rule="evenodd" transform="matrix(1 0 0 1 0 0)" d="M36 387.93L559.18 387.93L559.18 387.93L559.18 273.93L559.18 273.93L36 273.93z" /></clipPath><clipPath id="125"><path id="" clip-rule="evenodd" transform="matrix(1 0 0 1 0 0)" d="M36 387.93L559.18 387.93L559.18 387.93L559.18 273.93L559.18 273.93L36 273.93z" /></clipPath><clipPath id="126"><path id="" clip-rule="evenodd" transform="matrix(1 0 0 1 0 0)" d="M36 387.93L559.18 387.93L559.18 387.93L559.18 273.93L559.18 273.93L36 273.93z" /></clipPath><clipPath id="127"><path id="" clip-rule="evenodd" transform="matrix(1 0 0 1 0 0)" d="M36 387.93L559.18 387.93L559.18 387.93L559.18 273.93L559.18 273.93L36 273.93z" /></clipPath><clipPath id="128"><path id="" clip-rule="evenodd" transform="matrix(1 0 0 1 0 0)" d="M36 387.93L559.18 387.93L559.18 387.93L559.18 273.93L559.18 273.93L36 273.93z" /></clipPath><clipPath id="129"><path id="" clip-rule="evenodd" transform="matrix(1 0 0 1 0 0)" d="M36 387.93L559.18 387.93L559.18 387.93L559.18 273.93L559.18 273.93L36 273.93z" /></clipPath><clipPath id="130"><path id="" clip-rule="evenodd" transform="matrix(1 0 0 1 0 0)" d="M36 387.93L559.18 387.93L559.18 387.93L559.18 273.93L559.18 273.93L36 273.93z" /></clipPath><clipPath id="131"><path id="" clip-rule="evenodd" transform="matrix(1 0 0 1 0 0)" d="M36 387.93L559.18 387.93L559.18 387.93L559.18 273.93L559.18 273.93L36 273.93z" /></clipPath><clipPath id="132"><path id="" clip-rule="evenodd" transform="matrix(1 0 0 1 0 0)" d="M36 387.93L559.18 387.93L559.18 387.93L559.18 273.93L559.18 273.93L36 273.93z" /></clipPath><clipPath id="133"><path id="" clip-rule="evenodd" transform="matrix(1 0 0 1 0 0)" d="M36 387.93L559.18 387.93L559.18 387.93L559.18 273.93L559.18 273.93L36 273.93z" /></clipPath><clipPath id="134"><path id="" clip-rule="evenodd" transform="matrix(1 0 0 1 0 0)" d="M36 387.93L559.18 387.93L559.18 387.93L559.18 273.93L559.18 273.93L36 273.93z" /></clipPath><clipPath id="135"><path id="" clip-rule="evenodd" transform="matrix(1 0 0 1 0 0)" d="M36 387.93L559.18 387.93L559.18 387.93L559.18 273.93L559.18 273.93L36 273.93z" /></clipPath><clipPath id="136"><path id="" clip-rule="evenodd" transform="matrix(1 0 0 1 0 0)" d="M36 387.93L559.18 387.93L559.18 387.93L559.18 273.93L559.18 273.93L36 273.93z" /></clipPath><clipPath id="137"><path id="" clip-rule="evenodd" transform="matrix(1 0 0 1 0 0)" d="M36 387.93L559.18 387.93L559.18 387.93L559.18 273.93L559.18 273.93L36 273.93z" /></clipPath><clipPath id="138"><path id="" clip-rule="evenodd" transform="matrix(1 0 0 1 0 0)" d="M36 387.93L559.18 387.93L559.18 387.93L559.18 273.93L559.18 273.93L36 273.93z" /></clipPath><clipPath id="139"><path id="" clip-rule="evenodd" transform="matrix(1 0 0 1 0 0)" d="M36 387.93L559.18 387.93L559.18 387.93L559.18 273.93L559.18 273.93L36 273.93z" /></clipPath><clipPath id="140"><path id="" clip-rule="evenodd" transform="matrix(1 0 0 1 0 0)" d="M36 387.93L559.18 387.93L559.18 387.93L559.18 273.93L559.18 273.93L36 273.93z" /></clipPath><clipPath id="141"><path id="" clip-rule="evenodd" transform="matrix(1 0 0 1 0 0)" d="M36 387.93L559.18 387.93L559.18 387.93L559.18 273.93L559.18 273.93L36 273.93z" /></clipPath><clipPath id="142"><path id="" clip-rule="evenodd" transform="matrix(1 0 0 1 0 0)" d="M36 387.93L559.18 387.93L559.18 387.93L559.18 273.93L559.18 273.93L36 273.93z" /></clipPath><clipPath id="143"><path id="" clip-rule="evenodd" transform="matrix(1 0 0 1 0 0)" d="M36 387.93L559.18 387.93L559.18 387.93L559.18 273.93L559.18 273.93L36 273.93z" /></clipPath><clipPath id="144"><path id="" clip-rule="evenodd" transform="matrix(1 0 0 1 0 0)" d="M36 387.93L559.18 387.93L559.18 387.93L559.18 273.93L559.18 273.93L36 273.93z" /></clipPath><clipPath id="145"><path id="" clip-rule="evenodd" transform="matrix(1 0 0 1 0 0)" d="M36 387.93L559.18 387.93L559.18 387.93L559.18 273.93L559.18 273.93L36 273.93z" /></clipPath><clipPath id="146"><path id="" clip-rule="evenodd" transform="matrix(1 0 0 1 0 0)" d="M36 387.93L559.18 387.93L559.18 387.93L559.18 273.93L559.18 273.93L36 273.93z" /></clipPath><clipPath id="147"><path id="" clip-rule="evenodd" transform="matrix(1 0 0 1 0 0)" d="M36 387.93L559.18 387.93L559.18 387.93L559.18 273.93L559.18 273.93L36 273.93z" /></clipPath><clipPath id="148"><path id="" clip-rule="evenodd" transform="matrix(1 0 0 1 0 0)" d="M36 387.93L559.18 387.93L559.18 387.93L559.18 273.93L559.18 273.93L36 273.93z" /></clipPath><clipPath id="149"><path id="" clip-rule="evenodd" transform="matrix(1 0 0 1 0 0)" d="M36 387.93L559.18 387.93L559.18 387.93L559.18 273.93L559.18 273.93L36 273.93z" /></clipPath><clipPath id="150"><path id="" clip-rule="evenodd" transform="matrix(1 0 0 1 0 0)" d="M36 387.93L559.18 387.93L559.18 387.93L559.18 273.93L559.18 273.93L36 273.93z" /></clipPath><clipPath id="151"><path id="" clip-rule="evenodd" transform="matrix(1 0 0 1 0 0)" d="M36 387.93L559.18 387.93L559.18 387.93L559.18 273.93L559.18 273.93L36 273.93z" /></clipPath><clipPath id="152"><path id="" clip-rule="evenodd" transform="matrix(1 0 0 1 0 0)" d="M36 387.93L559.18 387.93L559.18 387.93L559.18 273.93L559.18 273.93L36 273.93z" /></clipPath><clipPath id="153"><path id="" clip-rule="evenodd" transform="matrix(1 0 0 1 0 0)" d="M36 387.93L559.18 387.93L559.18 387.93L559.18 273.93L559.18 273.93L36 273.93z" /></clipPath><clipPath id="154"><path id="" clip-rule="evenodd" transform="matrix(1 0 0 1 0 0)" d="M36 387.93L559.18 387.93L559.18 387.93L559.18 273.93L559.18 273.93L36 273.93z" /></clipPath><clipPath id="155"><path id="" clip-rule="evenodd" transform="matrix(1 0 0 1 0 0)" d="M36 387.93L559.18 387.93L559.18 387.93L559.18 273.93L559.18 273.93L36 273.93z" /></clipPath><clipPath id="156"><path id="" clip-rule="evenodd" transform="matrix(1 0 0 1 0 0)" d="M36 387.93L559.18 387.93L559.18 387.93L559.18 273.93L559.18 273.93L36 273.93z" /></clipPath><clipPath id="157"><path id="" clip-rule="evenodd" transform="matrix(1 0 0 1 0 0)" d="M36 387.93L559.18 387.93L559.18 387.93L559.18 273.93L559.18 273.93L36 273.93z" /></clipPath><clipPath id="158"><path id="" clip-rule="evenodd" transform="matrix(1 0 0 1 0 0)" d="M37.2 590.66L563.38 590.66L563.38 590.66L563.38 417.84L563.38 417.84L37.2 417.84z" /></clipPath><clipPath id="159"><path id="" clip-rule="evenodd" transform="matrix(1 0 0 1 0 0)" d="M37.2 590.66L563.38 590.66L563.38 590.66L563.38 417.84L563.38 417.84L37.2 417.84z" /></clipPath><clipPath id="160"><path id="" clip-rule="evenodd" transform="matrix(1 0 0 1 0 0)" d="M37.2 590.66L563.38 590.66L563.38 590.66L563.38 417.84L563.38 417.84L37.2 417.84z" /></clipPath><clipPath id="161"><path id="" clip-rule="evenodd" transform="matrix(1 0 0 1 0 0)" d="M37.2 590.66L563.38 590.66L563.38 590.66L563.38 417.84L563.38 417.84L37.2 417.84z" /></clipPath><clipPath id="162"><path id="" clip-rule="evenodd" transform="matrix(1 0 0 1 0 0)" d="M37.2 590.66L563.38 590.66L563.38 590.66L563.38 417.84L563.38 417.84L37.2 417.84z" /></clipPath><clipPath id="163"><path id="" clip-rule="evenodd" transform="matrix(1 0 0 1 0 0)" d="M37.2 590.66L563.38 590.66L563.38 590.66L563.38 417.84L563.38 417.84L37.2 417.84z" /></clipPath><clipPath id="164"><path id="" clip-rule="evenodd" transform="matrix(1 0 0 1 0 0)" d="M37.2 590.66L563.38 590.66L563.38 590.66L563.38 417.84L563.38 417.84L37.2 417.84z" /></clipPath><clipPath id="165"><path id="" clip-rule="evenodd" transform="matrix(1 0 0 1 0 0)" d="M37.2 590.66L563.38 590.66L563.38 590.66L563.38 417.84L563.38 417.84L37.2 417.84z" /></clipPath><clipPath id="166"><path id="" clip-rule="evenodd" transform="matrix(1 0 0 1 0 0)" d="M37.2 590.66L563.38 590.66L563.38 590.66L563.38 417.84L563.38 417.84L37.2 417.84z" /></clipPath><clipPath id="167"><path id="" clip-rule="evenodd" transform="matrix(1 0 0 1 0 0)" d="M37.2 590.66L563.38 590.66L563.38 590.66L563.38 417.84L563.38 417.84L37.2 417.84z" /></clipPath><clipPath id="168"><path id="" clip-rule="evenodd" transform="matrix(1 0 0 1 0 0)" d="M37.2 590.66L563.38 590.66L563.38 590.66L563.38 417.84L563.38 417.84L37.2 417.84z" /></clipPath><clipPath id="169"><path id="" clip-rule="evenodd" transform="matrix(1 0 0 1 0 0)" d="M37.2 590.66L563.38 590.66L563.38 590.66L563.38 417.84L563.38 417.84L37.2 417.84z" /></clipPath><clipPath id="170"><path id="" clip-rule="evenodd" transform="matrix(1 0 0 1 0 0)" d="M37.2 590.66L563.38 590.66L563.38 590.66L563.38 417.84L563.38 417.84L37.2 417.84z" /></clipPath><clipPath id="171"><path id="" clip-rule="evenodd" transform="matrix(1 0 0 1 0 0)" d="M37.2 590.66L563.38 590.66L563.38 590.66L563.38 417.84L563.38 417.84L37.2 417.84z" /></clipPath><clipPath id="172"><path id="" clip-rule="evenodd" transform="matrix(1 0 0 1 0 0)" d="M37.2 590.66L563.38 590.66L563.38 590.66L563.38 417.84L563.38 417.84L37.2 417.84z" /></clipPath><clipPath id="173"><path id="" clip-rule="evenodd" transform="matrix(1 0 0 1 0 0)" d="M37.2 590.66L563.38 590.66L563.38 590.66L563.38 417.84L563.38 417.84L37.2 417.84z" /></clipPath><clipPath id="174"><path id="" clip-rule="evenodd" transform="matrix(1 0 0 1 0 0)" d="M37.2 590.66L563.38 590.66L563.38 590.66L563.38 417.84L563.38 417.84L37.2 417.84z" /></clipPath><clipPath id="175"><path id="" clip-rule="evenodd" transform="matrix(1 0 0 1 0 0)" d="M37.2 590.66L563.38 590.66L563.38 590.66L563.38 417.84L563.38 417.84L37.2 417.84z" /></clipPath><clipPath id="176"><path id="" clip-rule="evenodd" transform="matrix(1 0 0 1 0 0)" d="M37.2 590.66L563.38 590.66L563.38 590.66L563.38 417.84L563.38 417.84L37.2 417.84z" /></clipPath><clipPath id="177"><path id="" clip-rule="evenodd" transform="matrix(1 0 0 1 0 0)" d="M37.2 590.66L563.38 590.66L563.38 590.66L563.38 417.84L563.38 417.84L37.2 417.84z" /></clipPath><clipPath id="178"><path id="" clip-rule="evenodd" transform="matrix(1 0 0 1 0 0)" d="M37.2 590.66L563.38 590.66L563.38 590.66L563.38 417.84L563.38 417.84L37.2 417.84z" /></clipPath><clipPath id="179"><path id="" clip-rule="evenodd" transform="matrix(1 0 0 1 0 0)" d="M37.2 590.66L563.38 590.66L563.38 590.66L563.38 417.84L563.38 417.84L37.2 417.84z" /></clipPath><clipPath id="180"><path id="" clip-rule="evenodd" transform="matrix(1 0 0 1 0 0)" d="M37.2 590.66L563.38 590.66L563.38 590.66L563.38 417.84L563.38 417.84L37.2 417.84z" /></clipPath><clipPath id="181"><path id="" clip-rule="evenodd" transform="matrix(1 0 0 1 0 0)" d="M37.2 590.66L563.38 590.66L563.38 590.66L563.38 417.84L563.38 417.84L37.2 417.84z" /></clipPath><clipPath id="182"><path id="" clip-rule="evenodd" transform="matrix(1 0 0 1 0 0)" d="M37.2 590.66L563.38 590.66L563.38 590.66L563.38 417.84L563.38 417.84L37.2 417.84z" /></clipPath><clipPath id="183"><path id="" clip-rule="evenodd" transform="matrix(1 0 0 1 0 0)" d="M37.2 590.66L563.38 590.66L563.38 590.66L563.38 417.84L563.38 417.84L37.2 417.84z" /></clipPath><clipPath id="184"><path id="" clip-rule="evenodd" transform="matrix(1 0 0 1 0 0)" d="M37.2 590.66L563.38 590.66L563.38 590.66L563.38 417.84L563.38 417.84L37.2 417.84z" /></clipPath><clipPath id="185"><path id="" clip-rule="evenodd" transform="matrix(1 0 0 1 0 0)" d="M37.2 590.66L563.38 590.66L563.38 590.66L563.38 417.84L563.38 417.84L37.2 417.84z" /></clipPath><clipPath id="186"><path id="" clip-rule="evenodd" transform="matrix(1 0 0 1 0 0)" d="M37.2 590.66L563.38 590.66L563.38 590.66L563.38 417.84L563.38 417.84L37.2 417.84z" /></clipPath><clipPath id="187"><path id="" clip-rule="evenodd" transform="matrix(1 0 0 1 0 0)" d="M37.2 590.66L563.38 590.66L563.38 590.66L563.38 417.84L563.38 417.84L37.2 417.84z" /></clipPath><clipPath id="188"><path id="" clip-rule="evenodd" transform="matrix(1 0 0 1 0 0)" d="M37.2 590.66L563.38 590.66L563.38 590.66L563.38 417.84L563.38 417.84L37.2 417.84z" /></clipPath><clipPath id="189"><path id="" clip-rule="evenodd" transform="matrix(1 0 0 1 0 0)" d="M37.2 590.66L563.38 590.66L563.38 590.66L563.38 417.84L563.38 417.84L37.2 417.84z" /></clipPath><clipPath id="190"><path id="" clip-rule="evenodd" transform="matrix(1 0 0 1 0 0)" d="M37.2 590.66L563.38 590.66L563.38 590.66L563.38 417.84L563.38 417.84L37.2 417.84z" /></clipPath><clipPath id="191"><path id="" clip-rule="evenodd" transform="matrix(1 0 0 1 0 0)" d="M37.2 590.66L563.38 590.66L563.38 590.66L563.38 417.84L563.38 417.84L37.2 417.84z" /></clipPath><clipPath id="192"><path id="" clip-rule="evenodd" transform="matrix(1 0 0 1 0 0)" d="M37.2 590.66L563.38 590.66L563.38 590.66L563.38 417.84L563.38 417.84L37.2 417.84z" /></clipPath><clipPath id="193"><path id="" clip-rule="evenodd" transform="matrix(1 0 0 1 0 0)" d="M37.2 590.66L563.38 590.66L563.38 590.66L563.38 417.84L563.38 417.84L37.2 417.84z" /></clipPath><clipPath id="194"><path id="" clip-rule="evenodd" transform="matrix(1 0 0 1 0 0)" d="M37.2 590.66L563.38 590.66L563.38 590.66L563.38 417.84L563.38 417.84L37.2 417.84z" /></clipPath><clipPath id="195"><path id="" clip-rule="evenodd" transform="matrix(1 0 0 1 0 0)" d="M37.2 590.66L563.38 590.66L563.38 590.66L563.38 417.84L563.38 417.84L37.2 417.84z" /></clipPath><clipPath id="196"><path id="" clip-rule="evenodd" transform="matrix(1 0 0 1 0 0)" d="M37.2 590.66L563.38 590.66L563.38 590.66L563.38 417.84L563.38 417.84L37.2 417.84z" /></clipPath><clipPath id="197"><path id="" clip-rule="evenodd" transform="matrix(1 0 0 1 0 0)" d="M37.2 590.66L563.38 590.66L563.38 590.66L563.38 417.84L563.38 417.84L37.2 417.84z" /></clipPath><clipPath id="198"><path id="" clip-rule="evenodd" transform="matrix(1 0 0 1 0 0)" d="M37.2 590.66L563.38 590.66L563.38 590.66L563.38 417.84L563.38 417.84L37.2 417.84z" /></clipPath><clipPath id="199"><path id="" clip-rule="evenodd" transform="matrix(1 0 0 1 0 0)" d="M37.2 590.66L563.38 590.66L563.38 590.66L563.38 417.84L563.38 417.84L37.2 417.84z" /></clipPath><clipPath id="200"><path id="" clip-rule="evenodd" transform="matrix(1 0 0 1 0 0)" d="M37.2 590.66L563.38 590.66L563.38 590.66L563.38 417.84L563.38 417.84L37.2 417.84z" /></clipPath><clipPath id="201"><path id="" clip-rule="evenodd" transform="matrix(1 0 0 1 0 0)" d="M37.2 590.66L563.38 590.66L563.38 590.66L563.38 417.84L563.38 417.84L37.2 417.84z" /></clipPath><clipPath id="202"><path id="" clip-rule="evenodd" transform="matrix(1 0 0 1 0 0)" d="M37.2 590.66L563.38 590.66L563.38 590.66L563.38 417.84L563.38 417.84L37.2 417.84z" /></clipPath><clipPath id="203"><path id="" clip-rule="evenodd" transform="matrix(1 0 0 1 0 0)" d="M37.2 590.66L563.38 590.66L563.38 590.66L563.38 417.84L563.38 417.84L37.2 417.84z" /></clipPath><clipPath id="204"><path id="" clip-rule="evenodd" transform="matrix(1 0 0 1 0 0)" d="M37.2 590.66L563.38 590.66L563.38 590.66L563.38 417.84L563.38 417.84L37.2 417.84z" /></clipPath><clipPath id="205"><path id="" clip-rule="evenodd" transform="matrix(1 0 0 1 0 0)" d="M37.2 590.66L563.38 590.66L563.38 590.66L563.38 417.84L563.38 417.84L37.2 417.84z" /></clipPath><clipPath id="206"><path id="" clip-rule="evenodd" transform="matrix(1 0 0 1 0 0)" d="M37.2 590.66L563.38 590.66L563.38 590.66L563.38 417.84L563.38 417.84L37.2 417.84z" /></clipPath><clipPath id="207"><path id="" clip-rule="evenodd" transform="matrix(1 0 0 1 0 0)" d="M37.2 590.66L563.38 590.66L563.38 590.66L563.38 417.84L563.38 417.84L37.2 417.84z" /></clipPath><clipPath id="208"><path id="" clip-rule="evenodd" transform="matrix(1 0 0 1 0 0)" d="M37.2 590.66L563.38 590.66L563.38 590.66L563.38 417.84L563.38 417.84L37.2 417.84z" /></clipPath><clipPath id="209"><path id="" clip-rule="evenodd" transform="matrix(1 0 0 1 0 0)" d="M37.2 590.66L563.38 590.66L563.38 590.66L563.38 417.84L563.38 417.84L37.2 417.84z" /></clipPath><clipPath id="210"><path id="" clip-rule="evenodd" transform="matrix(1 0 0 1 0 0)" d="M37.2 590.66L563.38 590.66L563.38 590.66L563.38 417.84L563.38 417.84L37.2 417.84z" /></clipPath><clipPath id="211"><path id="" clip-rule="evenodd" transform="matrix(1 0 0 1 0 0)" d="M37.2 590.66L563.38 590.66L563.38 590.66L563.38 417.84L563.38 417.84L37.2 417.84z" /></clipPath><clipPath id="212"><path id="" clip-rule="evenodd" transform="matrix(1 0 0 1 0 0)" d="M37.2 590.66L563.38 590.66L563.38 590.66L563.38 417.84L563.38 417.84L37.2 417.84z" /></clipPath><clipPath id="213"><path id="" clip-rule="evenodd" transform="matrix(1 0 0 1 0 0)" d="M37.2 590.66L563.38 590.66L563.38 590.66L563.38 417.84L563.38 417.84L37.2 417.84z" /></clipPath><clipPath id="214"><path id="" clip-rule="evenodd" transform="matrix(1 0 0 1 0 0)" d="M37.2 590.66L563.38 590.66L563.38 590.66L563.38 417.84L563.38 417.84L37.2 417.84z" /></clipPath><clipPath id="215"><path id="" clip-rule="evenodd" transform="matrix(1 0 0 1 0 0)" d="M37.2 590.66L563.38 590.66L563.38 590.66L563.38 417.84L563.38 417.84L37.2 417.84z" /></clipPath><clipPath id="216"><path id="" clip-rule="evenodd" transform="matrix(1 0 0 1 0 0)" d="M37.2 590.66L563.38 590.66L563.38 590.66L563.38 417.84L563.38 417.84L37.2 417.84z" /></clipPath><clipPath id="217"><path id="" clip-rule="evenodd" transform="matrix(1 0 0 1 0 0)" d="M37.2 590.66L563.38 590.66L563.38 590.66L563.38 417.84L563.38 417.84L37.2 417.84z" /></clipPath><clipPath id="218"><path id="" clip-rule="evenodd" transform="matrix(1 0 0 1 0 0)" d="M37.2 590.66L563.38 590.66L563.38 590.66L563.38 417.84L563.38 417.84L37.2 417.84z" /></clipPath><clipPath id="219"><path id="" clip-rule="evenodd" transform="matrix(1 0 0 1 0 0)" d="M37.2 590.66L563.38 590.66L563.38 590.66L563.38 417.84L563.38 417.84L37.2 417.84z" /></clipPath><clipPath id="220"><path id="" clip-rule="evenodd" transform="matrix(1 0 0 1 0 0)" d="M37.2 590.66L563.38 590.66L563.38 590.66L563.38 417.84L563.38 417.84L37.2 417.84z" /></clipPath><clipPath id="221"><path id="" clip-rule="evenodd" transform="matrix(1 0 0 1 0 0)" d="M37.2 590.66L563.38 590.66L563.38 590.66L563.38 417.84L563.38 417.84L37.2 417.84z" /></clipPath><clipPath id="222"><path id="" clip-rule="evenodd" transform="matrix(1 0 0 1 0 0)" d="M37.2 590.66L563.38 590.66L563.38 590.66L563.38 417.84L563.38 417.84L37.2 417.84z" /></clipPath><clipPath id="223"><path id="" clip-rule="evenodd" transform="matrix(1 0 0 1 0 0)" d="M36 787.6L573 787.6L573 787.6L573 644.78L573 644.78L36 644.78z" /></clipPath><clipPath id="224"><path id="" clip-rule="evenodd" transform="matrix(1 0 0 1 0 0)" d="M36 787.6L573 787.6L573 787.6L573 644.78L573 644.78L36 644.78z" /></clipPath><clipPath id="225"><path id="" clip-rule="evenodd" transform="matrix(1 0 0 1 0 0)" d="M36 787.6L573 787.6L573 787.6L573 644.78L573 644.78L36 644.78z" /></clipPath><clipPath id="226"><path id="" clip-rule="evenodd" transform="matrix(1 0 0 1 0 0)" d="M36 787.6L573 787.6L573 787.6L573 644.78L573 644.78L36 644.78z" /></clipPath><clipPath id="227"><path id="" clip-rule="evenodd" transform="matrix(1 0 0 1 0 0)" d="M36 787.6L573 787.6L573 787.6L573 644.78L573 644.78L36 644.78z" /></clipPath><clipPath id="228"><path id="" clip-rule="evenodd" transform="matrix(1 0 0 1 0 0)" d="M36 787.6L573 787.6L573 787.6L573 644.78L573 644.78L36 644.78z" /></clipPath><clipPath id="229"><path id="" clip-rule="evenodd" transform="matrix(1 0 0 1 0 0)" d="M36 787.6L573 787.6L573 787.6L573 644.78L573 644.78L36 644.78z" /></clipPath><clipPath id="230"><path id="" clip-rule="evenodd" transform="matrix(1 0 0 1 0 0)" d="M36 787.6L573 787.6L573 787.6L573 644.78L573 644.78L36 644.78z" /></clipPath><clipPath id="231"><path id="" clip-rule="evenodd" transform="matrix(1 0 0 1 0 0)" d="M36 787.6L573 787.6L573 787.6L573 644.78L573 644.78L36 644.78z" /></clipPath><clipPath id="232"><path id="" clip-rule="evenodd" transform="matrix(1 0 0 1 0 0)" d="M36 787.6L573 787.6L573 787.6L573 644.78L573 644.78L36 644.78z" /></clipPath><clipPath id="233"><path id="" clip-rule="evenodd" transform="matrix(1 0 0 1 0 0)" d="M36 787.6L573 787.6L573 787.6L573 644.78L573 644.78L36 644.78z" /></clipPath><clipPath id="234"><path id="" clip-rule="evenodd" transform="matrix(1 0 0 1 0 0)" d="M36 787.6L573 787.6L573 787.6L573 644.78L573 644.78L36 644.78z" /></clipPath><clipPath id="235"><path id="" clip-rule="evenodd" transform="matrix(1 0 0 1 0 0)" d="M36 787.6L573 787.6L573 787.6L573 644.78L573 644.78L36 644.78z" /></clipPath><clipPath id="236"><path id="" clip-rule="evenodd" transform="matrix(1 0 0 1 0 0)" d="M36 787.6L573 787.6L573 787.6L573 644.78L573 644.78L36 644.78z" /></clipPath><clipPath id="237"><path id="" clip-rule="evenodd" transform="matrix(1 0 0 1 0 0)" d="M36 787.6L573 787.6L573 787.6L573 644.78L573 644.78L36 644.78z" /></clipPath><clipPath id="238"><path id="" clip-rule="evenodd" transform="matrix(1 0 0 1 0 0)" d="M36 787.6L573 787.6L573 787.6L573 644.78L573 644.78L36 644.78z" /></clipPath><clipPath id="239"><path id="" clip-rule="evenodd" transform="matrix(1 0 0 1 0 0)" d="M36 787.6L573 787.6L573 787.6L573 644.78L573 644.78L36 644.78z" /></clipPath><clipPath id="240"><path id="" clip-rule="evenodd" transform="matrix(1 0 0 1 0 0)" d="M36 787.6L573 787.6L573 787.6L573 644.78L573 644.78L36 644.78z" /></clipPath><clipPath id="241"><path id="" clip-rule="evenodd" transform="matrix(1 0 0 1 0 0)" d="M36 787.6L573 787.6L573 787.6L573 644.78L573 644.78L36 644.78z" /></clipPath><clipPath id="242"><path id="" clip-rule="evenodd" transform="matrix(1 0 0 1 0 0)" d="M36 787.6L573 787.6L573 787.6L573 644.78L573 644.78L36 644.78z" /></clipPath><clipPath id="243"><path id="" clip-rule="evenodd" transform="matrix(1 0 0 1 0 0)" d="M36 787.6L573 787.6L573 787.6L573 644.78L573 644.78L36 644.78z" /></clipPath><clipPath id="244"><path id="" clip-rule="evenodd" transform="matrix(1 0 0 1 0 0)" d="M36 787.6L573 787.6L573 787.6L573 644.78L573 644.78L36 644.78z" /></clipPath><clipPath id="245"><path id="" clip-rule="evenodd" transform="matrix(1 0 0 1 0 0)" d="M36 787.6L573 787.6L573 787.6L573 644.78L573 644.78L36 644.78z" /></clipPath><clipPath id="246"><path id="" clip-rule="evenodd" transform="matrix(1 0 0 1 0 0)" d="M36 787.6L573 787.6L573 787.6L573 644.78L573 644.78L36 644.78z" /></clipPath><clipPath id="247"><path id="" clip-rule="evenodd" transform="matrix(1 0 0 1 0 0)" d="M36 787.6L573 787.6L573 787.6L573 644.78L573 644.78L36 644.78z" /></clipPath><clipPath id="248"><path id="" clip-rule="evenodd" transform="matrix(1 0 0 1 0 0)" d="M36 787.6L573 787.6L573 787.6L573 644.78L573 644.78L36 644.78z" /></clipPath><clipPath id="249"><path id="" clip-rule="evenodd" transform="matrix(1 0 0 1 0 0)" d="M36 787.6L573 787.6L573 787.6L573 644.78L573 644.78L36 644.78z" /></clipPath><clipPath id="250"><path id="" clip-rule="evenodd" transform="matrix(1 0 0 1 0 0)" d="M36 787.6L573 787.6L573 787.6L573 644.78L573 644.78L36 644.78z" /></clipPath><clipPath id="251"><path id="" clip-rule="evenodd" transform="matrix(1 0 0 1 0 0)" d="M36 787.6L573 787.6L573 787.6L573 644.78L573 644.78L36 644.78z" /></clipPath><clipPath id="252"><path id="" clip-rule="evenodd" transform="matrix(1 0 0 1 0 0)" d="M-2.44E-06 840.9999L595.32 840.9999L595.32 840.9999L595.32 -0.920105L595.32 -0.920105L-2.44E-06 -0.920105z" /></clipPath><clipPath id="253"><path id="" clip-rule="evenodd" transform="matrix(1 0 0 1 0 0)" d="M260.28 128.44L331.44 128.44L331.44 128.44L331.44 103.24L331.44 103.24L260.28 103.24z" /></clipPath><clipPath id="254"><path id="" clip-rule="evenodd" transform="matrix(1 0 0 1 0 0)" d="M260.28 128.44L331.44 128.44L331.44 128.44L331.44 103.24L331.44 103.24L260.28 103.24z" /></clipPath><clipPath id="255"><path id="" clip-rule="evenodd" transform="matrix(1 0 0 1 0 0)" d="M260.28 128.44L331.44 128.44L331.44 128.44L331.44 103.24L331.44 103.24L260.28 103.24z" /></clipPath><clipPath id="256"><path id="" clip-rule="evenodd" transform="matrix(1 0 0 1 0 0)" d="M-1.241E-06 840.9999L595.32 840.9999L595.32 840.9999L595.32 -0.920105L595.32 -0.920105L-1.241E-06 -0.920105z" /></clipPath><clipPath id="257"><path id="" clip-rule="evenodd" transform="matrix(1 0 0 1 0 0)" d="M266.64 410.68L347.16 410.68L347.16 410.68L347.16 377.8L347.16 377.8L266.64 377.8z" /></clipPath><clipPath id="258"><path id="" clip-rule="evenodd" transform="matrix(1 0 0 1 0 0)" d="M266.64 410.68L347.16 410.68L347.16 410.68L347.16 377.8L347.16 377.8L266.64 377.8z" /></clipPath><clipPath id="259"><path id="" clip-rule="evenodd" transform="matrix(1 0 0 1 0 0)" d="M8.871E-06 841L595.32 841L595.32 841L595.32 -0.9199829L595.32 -0.9199829L8.871E-06 -0.9199829z" /></clipPath></defs><g transform="matrix(1.333333 0 0 1.333333 0 0)"><g clip-path="url(#1)"><g clip-path="url(#2)"><g transform="matrix(0.12 0 0 0.12 36 37)"><g transform="matrix(1 0 0 1 0 0)"><image x="0" y="0" xlink:href="img_01.png" width="64" height="110" /></g></g></g><g clip-path="url(#3)"><path id="2" transform="matrix(1 0 0 -1 0 841)" d="M67.258 836.51L97.326 806.44L97.326 806.44L85.509 806.65L85.509 806.65L67.797 824.37L67.797 824.37L35.316 791.88L35.316 791.88L35.318 791.88L35.318 791.88L29.514 786.08L29.514 786.08L-0.55337 816.15L-0.55337 816.15L11.264 815.94L11.264 815.94L28.991 798.21L28.991 798.21L61.472 830.69L61.472 830.69L61.455 830.71z" stroke="none" fill="#2E75B6" fill-rule="evenodd" /></g><g clip-path="url(#4)"><g transform="matrix(0.7151352 0 0 0.7126951 7.08 3.278992)"><g transform="matrix(1 0 0 1 0 0)"><image x="0" y="0" xlink:href="img_02.png" width="148" height="82" /></g></g></g><g clip-path="url(#5)"><path id="4" transform="matrix(1 0 0 -1 0 841)" d="M79.036 836.51L109.1 806.44L109.1 806.44L97.286 806.65L97.286 806.65L79.637 824.3L79.637 824.3L41.602 786.27L41.602 786.27L41.541 786.33L41.541 786.33L41.292 786.08L41.292 786.08L11.224 816.15L11.224 816.15L23.041 815.94L23.041 815.94L40.831 798.15L40.831 798.15L73.312 830.63L73.312 830.63L73.232 830.71z" stroke="none" fill="#00B0F0" fill-rule="evenodd" /></g><g clip-path="url(#6)"><g clip-path="url(#7)"></g><g clip-path="url(#8)"></g><g clip-path="url(#9)"></g><g clip-path="url(#10)"></g><g clip-path="url(#11)"></g><g clip-path="url(#12)"><g transform="matrix(0.12 0 0 0.12 123.86 83.34003)"><g transform="matrix(1 0 0 1 0 0)"><image x="0" y="0" xlink:href="img_03.png" width="184" height="125" /></g></g></g><g clip-path="url(#13)"><g transform="matrix(0.12 0 0 0.12 134.9 83.34003)"><g transform="matrix(1 0 0 1 0 0)"><image x="0" y="0" xlink:href="img_04.png" width="210" height="125" /></g></g></g><g clip-path="url(#14)"></g><g clip-path="url(#15)"></g><g clip-path="url(#16)"><g transform="matrix(0.12 0 0 0.12 123.86 104.1)"><g transform="matrix(1 0 0 1 0 0)"><image x="0" y="0" xlink:href="img_05.png" width="140" height="125" /></g></g></g><g clip-path="url(#17)"><g transform="matrix(0.1201421 0 0 0.12 132.26 104.1)"><g transform="matrix(1 0 0 1 0 0)"><image x="0" y="0" xlink:href="img_06.png" width="746" height="125" /></g></g></g></g><g clip-path="url(#18)"><g clip-path="url(#19)"></g><g clip-path="url(#20)"></g><g clip-path="url(#21)"></g><g clip-path="url(#22)"></g><g clip-path="url(#23)"></g><g clip-path="url(#24)"></g><g clip-path="url(#25)"></g><g clip-path="url(#26)"></g><g clip-path="url(#27)"></g><g clip-path="url(#28)"></g><g clip-path="url(#29)"></g><g clip-path="url(#30)"></g><g clip-path="url(#31)"></g><path id="64" transform="matrix(1 0 0 -1 0 841)" d="M274.61 752.74L378.67 752.74L378.67 752.74L378.67 753.34L378.67 753.34L274.61 753.34z" stroke="none" fill="#0563C1" fill-rule="evenodd" /><g clip-path="url(#32)"></g><g clip-path="url(#33)"></g></g><path id="90" transform="matrix(1 0 0 -1 0 841)" d="M33.6 585.56C 33.6 586.54 151.62 587.33 297.2 587.33C 442.78 587.33 560.8 586.54 560.8 585.56C 560.8 584.58 442.78 583.79 297.2 583.79C 151.62 583.79 33.6 584.58 33.6 585.56z" stroke="none" fill="#00B0F0" fill-rule="evenodd" /><path id="91" transform="matrix(1 0 0 -1 0 841)" d="M33.6 585.56C 33.6 586.54 151.62 587.33 297.2 587.33C 442.78 587.33 560.8 586.54 560.8 585.56C 560.8 584.58 442.78 583.79 297.2 583.79C 151.62 583.79 33.6 584.58 33.6 585.56z" stroke="#5B9BD5" stroke-width="1" fill="none" /><g clip-path="url(#34)"><g transform="matrix(0.3607643 0 0 0.3625532 260.52 226.48)"><g transform="matrix(1 0 0 1 0 0)"><image x="0" y="0" xlink:href="img_07.png" width="314" height="94" /></g></g></g><g clip-path="url(#35)"></g><g clip-path="url(#36)"></g><g clip-path="url(#37)"></g><path id="99" transform="matrix(1 0 0 -1 0 841)" d="M265.67 599.27C 265.67 599.27 265.67 599.27 265.67 599.27M265.67 599.27C 265.67 592.81 265.67 592.81 265.67 592.81C 265.67 592.81 265.67 592.11 264.97 592.11C 252.21 592.11 252.21 592.11 252.21 592.11C 252.21 592.11 251.62 591.99 251.62 592.7C 251.62 599.27 251.62 599.27 251.62 599.27C 256.7 597.28 256.7 597.28 256.7 597.28C 256.7 596.69 256.7 596.69 256.7 596.69C 256.7 596.69 256.7 595.99 257.29 595.99C 259.89 595.99 259.89 595.99 259.89 595.99C 259.89 595.99 260.6 595.99 260.6 596.69C 260.6 597.28 260.6 597.28 260.6 597.28C 265.67 599.27 265.67 599.27 265.67 599.27zM260.36 602.8C 260.36 603.62 260.36 603.62 260.36 603.62C 260.36 603.62 260.48 604.09 260.12 604.09C 257.17 604.09 257.17 604.09 257.17 604.09C 257.17 604.09 256.82 604.09 256.82 603.62C 256.82 602.8 256.82 602.8 256.82 602.8C 255.75 602.8 255.75 602.8 255.75 602.8C 255.75 604.33 255.75 604.33 255.75 604.33C 255.75 604.33 255.75 604.91 256.46 605.03C 260.71 605.03 260.71 605.03 260.71 605.03C 260.71 605.03 261.54 605.15 261.54 604.33C 261.42 602.8 261.42 602.8 261.42 602.8C 260.36 602.8 260.36 602.8 260.36 602.8zM255.75 602.8C 252.09 602.8 252.09 602.8 252.09 602.8C 252.09 602.8 251.62 602.92 251.62 602.09C 251.62 599.74 251.62 599.74 251.62 599.74C 255.99 597.98 255.99 597.98 255.99 597.98C 256.58 597.98 256.58 597.98 256.58 597.98C 256.58 598.45 256.58 598.45 256.58 598.45C 256.58 598.45 256.7 598.8 257.05 598.8C 259.89 598.8 259.89 598.8 259.89 598.8C 259.89 598.8 260.6 598.92 260.6 598.45C 260.6 597.98 260.6 597.98 260.6 597.98C 261.3 597.98 261.3 597.98 261.3 597.98C 265.67 599.74 265.67 599.74 265.67 599.74C 265.67 602.21 265.67 602.21 265.67 602.21C 265.67 602.21 265.79 602.8 265.2 602.8C 261.42 602.8 261.42 602.8 261.42 602.8C 255.75 602.8 255.75 602.8 255.75 602.8zM257.29 597.75C 257.29 597.75 257.17 598.22 257.76 598.22C 259.53 598.22 259.53 598.22 259.53 598.22C 259.53 598.22 259.89 598.22 259.89 597.75C 259.89 597.16 259.89 597.16 259.89 597.16C 259.89 597.16 260 596.69 259.53 596.69C 257.76 596.69 257.76 596.69 257.76 596.69C 257.76 596.69 257.29 596.46 257.29 597.16C 257.29 597.75 257.29 597.75 257.29 597.75z" stroke="none" fill="#00B0F0" fill-rule="evenodd" /><path id="100" transform="matrix(1 0 0 -1 0 841)" d="M261.85 757.92L261.85 757.92zM261.85 757.92L267.5 762.54L267.5 762.54L267.5 763.63L267.5 763.63L256.2 763.63L256.2 763.63L256.2 762.54L256.2 762.54L261.85 757.92L261.85 757.92L261.85 757.92L261.85 757.92L261.85 757.92zM267.5 756.53L267.5 761.83L267.5 761.83L264.32 759.35L264.32 759.35L267.5 756.53L267.5 756.53L267.5 756.53L267.5 756.53L267.5 756.53zM259.38 759.35L256.2 761.83L256.2 761.83L256.2 756.53L256.2 756.53L259.38 759.35L259.38 759.35L259.38 759.35L259.38 759.35L259.38 759.35zM267.5 755.82L263.98 759.01L263.98 759.01L261.85 757.25L261.85 757.25L259.72 759.01L259.72 759.01L256.2 755.82L256.2 755.82L267.5 755.82L267.5 755.82L267.5 755.82L267.5 755.82L267.5 755.82z" stroke="none" fill="#00B0F0" fill-rule="evenodd" /><path id="101" transform="matrix(1 0 0 -1 0 841)" d="M264.5 775.67C 257.57 775.67 257.57 775.67 257.57 775.67C 257.57 784.17 257.57 784.17 257.57 784.17C 264.5 784.17 264.5 784.17 264.5 784.17L264.5 784.17L264.5 775.67zM261.03 773.93C 260.65 773.93 260.45 774.13 260.45 774.51C 260.45 774.9 260.65 775.09 261.03 775.09C 261.42 775.09 261.61 774.9 261.61 774.51C 261.61 774.13 261.42 773.93 261.03 773.93M264.5 785.71C 257.57 785.71 257.57 785.71 257.57 785.71C 257.18 785.71 256.8 785.32 256.8 784.94C 256.8 774.13 256.8 774.13 256.8 774.13C 256.8 773.74 257.18 773.35 257.57 773.35C 264.5 773.35 264.5 773.35 264.5 773.35C 264.88 773.35 265.27 773.74 265.27 774.13C 265.27 784.94 265.27 784.94 265.27 784.94C 265.27 785.32 264.88 785.71 264.5 785.71" stroke="none" fill="#00B0F0" fill-rule="evenodd" /><path id="102" transform="matrix(1 0 0 -1 0 841)" d="M261.39 814.35C 261.39 814.27 261.39 814.19 261.39 814.19C 261.31 814.11 261.31 814.11 261.23 814.03C 260.99 813.87 260.83 813.79 260.59 813.71C 260.35 813.63 260.11 813.55 259.95 813.47C 259.71 813.38 259.55 813.3 259.39 813.14C 259.23 812.98 259.15 812.74 259.15 812.5C 259.07 812.42 259.07 812.34 259.07 812.26C 259.07 812.18 259.07 812.1 259.07 812.02C 259.07 812.02 259.07 812.02 259.07 812.02C 259.07 812.02 258.99 812.02 258.99 811.93C 258.75 812.02 258.43 812.02 258.12 812.02C 257.88 812.1 257.56 812.1 257.32 812.18C 257.08 812.18 256.84 812.26 256.68 812.26C 256.52 812.34 256.44 812.34 256.36 812.34C 256.28 812.42 256.28 812.58 256.2 812.82C 256.2 813.14 256.2 813.47 256.28 813.87C 256.28 814.11 256.36 814.27 256.52 814.43C 256.68 814.51 256.84 814.59 257.08 814.67C 257.32 814.75 257.48 814.83 257.72 814.92C 257.96 814.92 258.12 815 258.28 815.16C 258.43 815.24 258.51 815.32 258.59 815.4C 258.67 815.48 258.75 815.56 258.75 815.64C 258.83 815.72 258.83 815.8 258.83 815.88C 258.83 815.96 258.83 816.04 258.83 816.12C 258.75 816.28 258.75 816.36 258.67 816.45C 258.59 816.61 258.43 816.69 258.35 816.77C 258.28 816.77 258.28 816.85 258.2 816.93C 258.2 817.01 258.12 817.09 258.12 817.17C 258.12 817.25 258.04 817.33 258.04 817.49C 257.96 817.49 257.96 817.49 257.88 817.57C 257.88 817.57 257.8 817.65 257.8 817.65C 257.72 817.73 257.72 817.81 257.64 817.9C 257.64 818.06 257.64 818.14 257.64 818.22C 257.64 818.3 257.64 818.38 257.64 818.46C 257.72 818.54 257.72 818.62 257.8 818.7C 257.8 818.94 257.8 819.18 257.8 819.43C 257.88 819.59 257.88 819.83 257.96 820.07C 258.04 820.31 258.12 820.47 258.28 820.71C 258.35 820.88 258.51 821.04 258.67 821.12C 258.83 821.2 258.99 821.36 259.15 821.36C 259.23 821.44 259.39 821.52 259.55 821.52C 259.71 821.52 259.87 821.52 260.03 821.52C 260.43 821.52 260.75 821.44 261.07 821.28C 261.31 821.12 261.55 820.96 261.71 820.8C 261.79 820.71 261.87 820.55 261.87 820.47C 261.95 820.31 261.95 820.23 262.03 820.07C 261.87 819.99 261.71 819.91 261.55 819.75C 261.39 819.59 261.23 819.43 261.15 819.18C 260.99 819.02 260.91 818.78 260.83 818.54C 260.75 818.3 260.67 818.06 260.59 817.81C 260.59 817.57 260.59 817.33 260.59 817.01C 260.51 816.93 260.43 816.85 260.43 816.77C 260.43 816.77 260.43 816.61 260.35 816.53C 260.35 816.45 260.43 816.36 260.43 816.2C 260.43 816.04 260.51 815.96 260.59 815.88C 260.59 815.88 260.67 815.8 260.67 815.72C 260.75 815.72 260.75 815.72 260.83 815.64C 260.83 815.56 260.83 815.4 260.91 815.32C 260.91 815.24 260.99 815.16 260.99 815.08C 261.07 815 261.07 814.92 261.15 814.83C 261.23 814.83 261.23 814.75 261.31 814.75C 261.31 814.67 261.31 814.67 261.39 814.67C 261.39 814.59 261.39 814.59 261.39 814.51C 261.39 814.51 261.39 814.43 261.39 814.35M267.38 812.26C 267.38 812.18 267.38 812.1 267.46 811.93C 267.46 811.77 267.46 811.61 267.46 811.45C 267.46 811.29 267.46 811.13 267.46 811.05C 267.38 810.89 267.38 810.81 267.3 810.73C 267.3 810.65 267.22 810.65 267.06 810.57C 266.9 810.57 266.74 810.48 266.5 810.48C 266.34 810.4 266.1 810.4 265.78 810.32C 265.54 810.32 265.3 810.32 264.99 810.24C 264.75 810.24 264.51 810.24 264.27 810.24C 264.03 810.16 263.79 810.16 263.63 810.16C 263.39 810.16 263.23 810.16 262.99 810.24C 262.75 810.24 262.51 810.24 262.19 810.24C 261.95 810.32 261.71 810.32 261.47 810.32C 261.23 810.4 260.99 810.4 260.75 810.4C 260.51 810.48 260.35 810.48 260.19 810.57C 260.03 810.57 259.95 810.57 259.95 810.65C 259.87 810.65 259.79 810.81 259.79 811.13C 259.79 811.37 259.79 811.69 259.79 812.1C 259.87 812.34 259.95 812.5 260.11 812.66C 260.27 812.74 260.43 812.9 260.67 812.98C 260.83 813.06 261.07 813.06 261.31 813.14C 261.55 813.22 261.71 813.3 261.87 813.38C 262.03 813.47 262.11 813.55 262.19 813.63C 262.27 813.71 262.35 813.79 262.35 813.87C 262.35 813.95 262.43 814.03 262.43 814.11C 262.43 814.19 262.43 814.27 262.35 814.35C 262.35 814.51 262.35 814.67 262.19 814.75C 262.11 814.83 262.03 814.92 261.95 815C 261.87 815.08 261.87 815.08 261.79 815.16C 261.79 815.24 261.71 815.32 261.71 815.4C 261.63 815.56 261.63 815.64 261.63 815.72C 261.55 815.72 261.55 815.8 261.47 815.8C 261.47 815.8 261.39 815.88 261.39 815.96C 261.31 815.96 261.31 816.04 261.23 816.2C 261.23 816.28 261.15 816.36 261.15 816.45C 261.23 816.61 261.23 816.69 261.23 816.69C 261.31 816.77 261.31 816.85 261.39 816.93C 261.39 817.17 261.39 817.41 261.39 817.65C 261.47 817.9 261.47 818.06 261.55 818.3C 261.63 818.54 261.71 818.78 261.87 818.94C 261.95 819.1 262.11 819.26 262.27 819.35C 262.35 819.51 262.51 819.59 262.67 819.67C 262.83 819.67 262.99 819.75 263.15 819.75C 263.31 819.83 263.47 819.83 263.63 819.83C 264.03 819.83 264.35 819.75 264.67 819.59C 264.91 819.43 265.14 819.26 265.3 819.1C 265.46 818.86 265.54 818.62 265.62 818.38C 265.7 818.14 265.78 817.9 265.78 817.65C 265.86 817.41 265.86 817.17 265.86 816.93C 265.86 816.85 265.94 816.85 265.94 816.77C 266.02 816.77 266.02 816.69 266.02 816.61C 266.02 816.53 266.02 816.45 266.02 816.36C 266.02 816.2 266.02 816.12 265.94 816.04C 265.86 815.96 265.86 815.88 265.78 815.8C 265.78 815.8 265.7 815.72 265.62 815.72C 265.62 815.64 265.54 815.56 265.54 815.4C 265.54 815.32 265.46 815.24 265.46 815.16C 265.38 815.08 265.3 815.08 265.3 815C 265.22 814.92 265.14 814.92 265.14 814.83C 265.07 814.83 265.07 814.75 264.99 814.75C 264.99 814.67 264.91 814.67 264.91 814.59C 264.91 814.59 264.83 814.51 264.83 814.43C 264.83 814.35 264.83 814.19 264.83 814.11C 264.83 814.03 264.83 813.95 264.91 813.79C 264.91 813.71 264.99 813.63 265.14 813.55C 265.22 813.47 265.38 813.38 265.54 813.3C 265.7 813.22 265.86 813.14 266.02 813.14C 266.26 813.06 266.42 813.06 266.58 812.98C 266.74 812.9 266.9 812.82 267.06 812.74C 267.22 812.58 267.3 812.5 267.38 812.26" stroke="none" fill="#00B0F0" fill-rule="evenodd" /><path id="103" transform="matrix(1 0 0 -1 0 841)" d="M261.25 801.86C 261.25 801.86 261.25 801.86 261.25 801.86M261.25 801.86C 263.32 801.86 265.11 800.62 265.11 799.06C 265.11 797.51 263.32 796.16 261.25 796.16C 259.18 796.16 257.53 797.51 257.53 799.06C 257.53 800.62 259.18 801.86 261.25 801.86zM261.25 792.01C 261.25 792.01 266.9 796.68 266.9 799.06C 266.9 801.34 264.42 803.32 261.25 803.32C 258.22 803.32 255.6 801.34 255.6 799.06C 255.6 796.68 261.25 792.01 261.25 792.01z" stroke="none" fill="#00B0F0" fill-rule="evenodd" /><path id="104" transform="matrix(1 0 0 -1 0 841)" d="M33.6 214.25C 33.6 215.23 151.62 216.03 297.2 216.03C 442.78 216.03 560.8 215.23 560.8 214.25C 560.8 213.27 442.78 212.48 297.2 212.48C 151.62 212.48 33.6 213.27 33.6 214.25z" stroke="none" fill="#00B0F0" fill-rule="evenodd" /><g clip-path="url(#38)"><g transform="matrix(0.3612183 0 0 0.362963 265.2 597.76)"><g transform="matrix(1 0 0 1 0 0)"><image x="0" y="0" xlink:href="img_08.png" width="197" height="81" /></g></g></g><g clip-path="url(#39)"></g><g clip-path="url(#40)"></g><g clip-path="url(#41)"></g><path id="110" transform="matrix(1 0 0 -1 0 841)" d="M256.04 226C 256.04 226 256.04 226 256.04 226M256.04 226C 255.36 223.26 255.36 223.26 255.36 223.26C 255.32 223.14 255.36 223.02 255.43 222.9C 255.5 222.82 255.65 222.79 255.75 222.82C 258.28 223.57 258.28 223.57 258.28 223.57C 257.77 224.16 257.77 224.16 257.77 224.16C 256.11 223.65 256.11 223.65 256.11 223.65C 256.55 225.45 256.55 225.45 256.55 225.45C 256.04 226 256.04 226 256.04 226zM263.25 230.04C 258.24 224.59 258.24 224.59 258.24 224.59C 256.98 225.96 256.98 225.96 256.98 225.96C 261.99 231.41 261.99 231.41 261.99 231.41C 263.25 230.04 263.25 230.04 263.25 230.04zM263.28 232.79C 263.43 232.94 263.68 232.94 263.86 232.75C 264.47 232.08 264.47 232.08 264.47 232.08C 264.65 231.88 264.65 231.61 264.51 231.41C 263.75 230.63 263.75 230.63 263.75 230.63C 262.53 232 262.53 232 262.53 232C 263.28 232.79 263.28 232.79 263.28 232.79zM258.31 223.57C 265.01 230.9 265.01 230.9 265.01 230.9C 265.41 231.34 265.37 232.08 264.94 232.55C 264.29 233.26 264.29 233.26 264.29 233.26C 263.86 233.73 263.18 233.77 262.78 233.34C 256.04 226 256.04 226 256.04 226C 258.31 223.57 258.31 223.57 258.31 223.57zM264.87 228.51C 264.65 228.51 264.51 228.32 264.51 228.12C 264.51 228.12 264.51 228.12 264.51 228.12C 264.51 228.12 264.51 228.12 264.51 228.12C 264.51 228.12 264.51 228.12 264.51 228.12C 264.51 221.29 264.51 221.29 264.51 221.29C 264.51 220.86 264.18 220.51 263.79 220.51C 257.05 220.51 257.05 220.51 257.05 220.51C 257.05 220.51 257.05 220.51 257.05 220.51C 253.2 220.51 253.2 220.51 253.2 220.51C 252.8 220.51 252.51 220.86 252.51 221.29C 252.51 232.43 252.51 232.43 252.51 232.43C 252.51 232.86 252.8 233.18 253.2 233.18C 260.04 233.18 260.04 233.18 260.04 233.18C 260.22 233.18 260.4 233.37 260.4 233.57C 260.4 233.81 260.22 233.96 260.04 233.96C 253.12 233.96 253.12 233.96 253.12 233.96C 252.4 233.96 251.79 233.3 251.79 232.51C 251.79 228.75 251.79 228.75 251.79 228.75C 251.79 228.75 251.79 228.75 251.79 228.75C 251.79 221.22 251.79 221.22 251.79 221.22C 251.79 220.39 252.4 219.77 253.12 219.77C 263.86 219.77 263.86 219.77 263.86 219.77C 264.62 219.77 265.23 220.39 265.23 221.22C 265.23 228.12 265.23 228.12 265.23 228.12C 265.23 228.32 265.05 228.51 264.87 228.51z" stroke="none" fill="#00B0F0" fill-rule="evenodd" /><path id="111" transform="matrix(1 0 0 -1 0 841)" d="M298.11 45.27L310.38 21.331L310.38 21.331L320.07 40.236L320.07 40.236L334.93 11.254L334.93 11.254L315.55 11.254L315.55 11.254L305.22 11.254L305.22 11.254L288.1 11.254L288.1 11.254L280.67 11.254L280.67 11.254L258.39 11.254L258.39 11.254L273.25 40.236L273.25 40.236L284.39 18.503z" stroke="none" fill="#00B0F0" fill-rule="evenodd" /><path id="112" transform="matrix(1 0 0 -1 0 841)" d="M34.05 10.531C 34.05 11.512 152.07 12.306 297.65 12.306C 443.23 12.306 561.25 11.512 561.25 10.531C 561.25 9.5509 443.23 8.7562 297.65 8.7562C 152.07 8.7562 34.05 9.5509 34.05 10.531z" stroke="none" fill="#00B0F0" fill-rule="evenodd" /><path id="113" transform="matrix(1 0 0 -1 0 841)" d="M296.48 28.341C 296.48 29.515 297.43 30.466 298.6 30.466C 299.78 30.466 300.73 29.515 300.73 28.341C 300.73 27.168 299.78 26.216 298.6 26.216C 297.43 26.216 296.48 27.168 296.48 28.341z" stroke="none" fill="#FFFFFF" fill-rule="evenodd" /><path id="114" transform="matrix(1 0 0 -1 0 841)" d="M292.44 20.266C 292.44 21.44 293.39 22.392 294.57 22.392C 295.74 22.392 296.69 21.44 296.69 20.266C 296.69 19.092 295.74 18.14 294.57 18.14C 293.39 18.14 292.44 19.092 292.44 20.266z" stroke="none" fill="#FFFFFF" fill-rule="evenodd" /><path id="115" transform="matrix(1 0 0 -1 0 841)" d="M299.84 20.267C 299.84 21.44 300.8 22.392 301.97 22.392C 303.14 22.392 304.09 21.44 304.09 20.267C 304.09 19.093 303.14 18.142 301.97 18.142C 300.8 18.142 299.84 19.093 299.84 20.267z" stroke="none" fill="#FFFFFF" fill-rule="evenodd" /><g clip-path="url(#42)"><g clip-path="url(#43)"></g><g clip-path="url(#44)"></g><g clip-path="url(#45)"></g><g clip-path="url(#46)"></g><g clip-path="url(#47)"></g><g clip-path="url(#48)"></g><g clip-path="url(#49)"></g><g clip-path="url(#50)"></g><g clip-path="url(#51)"></g><g clip-path="url(#52)"></g><g clip-path="url(#53)"></g><g clip-path="url(#54)"></g><g clip-path="url(#55)"></g><g clip-path="url(#56)"></g><g clip-path="url(#57)"></g><g clip-path="url(#58)"></g><g clip-path="url(#59)"></g><g clip-path="url(#60)"></g><g clip-path="url(#61)"></g><g clip-path="url(#62)"></g><g clip-path="url(#63)"></g><g clip-path="url(#64)"></g><g clip-path="url(#65)"></g><g clip-path="url(#66)"></g><g clip-path="url(#67)"></g><g clip-path="url(#68)"></g><g clip-path="url(#69)"></g><g clip-path="url(#70)"></g><g clip-path="url(#71)"></g><g clip-path="url(#72)"></g><g clip-path="url(#73)"></g><g clip-path="url(#74)"></g><g clip-path="url(#75)"></g><g clip-path="url(#76)"></g><g clip-path="url(#77)"></g><g clip-path="url(#78)"></g><g clip-path="url(#79)"></g><g clip-path="url(#80)"></g><g clip-path="url(#81)"></g><g clip-path="url(#82)"></g><g clip-path="url(#83)"></g><g clip-path="url(#84)"></g><g clip-path="url(#85)"></g><g clip-path="url(#86)"></g><g clip-path="url(#87)"></g><g clip-path="url(#88)"></g><g clip-path="url(#89)"></g><g clip-path="url(#90)"></g><g clip-path="url(#91)"></g><g clip-path="url(#92)"></g><g clip-path="url(#93)"></g><g clip-path="url(#94)"></g><g clip-path="url(#95)"></g></g><g clip-path="url(#96)"><g transform="matrix(0.3275794 0 0 0.3265254 470.55 10.72998)"><g transform="matrix(1 0 0 1 0 0)"><image x="0" y="0" xlink:href="img_09.png" width="252" height="354" /></g></g></g><path id="266" transform="matrix(1 0 0 -1 0 841)" d="M470.18 714.31L553.48 714.31L553.48 714.31L553.48 830.65L553.48 830.65L470.18 830.65z" stroke="#000000" stroke-width="0.75" fill="none" /><g clip-path="url(#97)"><g clip-path="url(#98)"></g><g clip-path="url(#99)"></g><g clip-path="url(#100)"></g><g clip-path="url(#101)"></g><g clip-path="url(#102)"></g><g clip-path="url(#103)"></g><g clip-path="url(#104)"></g><g clip-path="url(#105)"></g><g clip-path="url(#106)"></g><g clip-path="url(#107)"></g><g clip-path="url(#108)"></g><g clip-path="url(#109)"></g><g clip-path="url(#110)"></g><g clip-path="url(#111)"></g><g clip-path="url(#112)"></g><g clip-path="url(#113)"></g><g clip-path="url(#114)"></g><g clip-path="url(#115)"></g><g clip-path="url(#116)"></g><g clip-path="url(#117)"></g><g clip-path="url(#118)"></g><g clip-path="url(#119)"></g><g clip-path="url(#120)"></g><g clip-path="url(#121)"></g><g clip-path="url(#122)"></g><g clip-path="url(#123)"></g><g clip-path="url(#124)"></g><g clip-path="url(#125)"></g><g clip-path="url(#126)"></g><g clip-path="url(#127)"></g><g clip-path="url(#128)"></g><g clip-path="url(#129)"></g><g clip-path="url(#130)"></g><g clip-path="url(#131)"></g><g clip-path="url(#132)"></g><g clip-path="url(#133)"></g><g clip-path="url(#134)"></g><g clip-path="url(#135)"></g><g clip-path="url(#136)"></g><g clip-path="url(#137)"></g><g clip-path="url(#138)"></g><g clip-path="url(#139)"></g><g clip-path="url(#140)"></g><g clip-path="url(#141)"></g><g clip-path="url(#142)"></g><g clip-path="url(#143)"></g><g clip-path="url(#144)"></g><g clip-path="url(#145)"></g><g clip-path="url(#146)"></g><g clip-path="url(#147)"></g><g clip-path="url(#148)"></g><g clip-path="url(#149)"></g><g clip-path="url(#150)"></g><g clip-path="url(#151)"></g><g clip-path="url(#152)"></g><g clip-path="url(#153)"></g><g clip-path="url(#154)"></g><g clip-path="url(#155)"></g><g clip-path="url(#156)"></g><g clip-path="url(#157)"></g></g><g clip-path="url(#158)"><g clip-path="url(#159)"></g><g clip-path="url(#160)"></g><g clip-path="url(#161)"></g><g clip-path="url(#162)"></g><g clip-path="url(#163)"></g><g clip-path="url(#164)"></g><g clip-path="url(#165)"></g><g clip-path="url(#166)"></g><g clip-path="url(#167)"></g><g clip-path="url(#168)"></g><g clip-path="url(#169)"></g><g clip-path="url(#170)"></g><g clip-path="url(#171)"></g><g clip-path="url(#172)"></g><g clip-path="url(#173)"></g><g clip-path="url(#174)"></g><g clip-path="url(#175)"></g><g clip-path="url(#176)"></g><g clip-path="url(#177)"></g><g clip-path="url(#178)"></g><g clip-path="url(#179)"></g><g clip-path="url(#180)"></g><g clip-path="url(#181)"></g><g clip-path="url(#182)"></g><g clip-path="url(#183)"></g><g clip-path="url(#184)"></g><g clip-path="url(#185)"></g><g clip-path="url(#186)"></g><g clip-path="url(#187)"></g><g clip-path="url(#188)"></g><g clip-path="url(#189)"></g><g clip-path="url(#190)"></g><g clip-path="url(#191)"></g><g clip-path="url(#192)"></g><g clip-path="url(#193)"></g><g clip-path="url(#194)"></g><g clip-path="url(#195)"></g><g clip-path="url(#196)"></g><g clip-path="url(#197)"></g><g clip-path="url(#198)"></g><g clip-path="url(#199)"></g><g clip-path="url(#200)"></g><g clip-path="url(#201)"></g><g clip-path="url(#202)"></g><g clip-path="url(#203)"></g><g clip-path="url(#204)"></g><g clip-path="url(#205)"></g><g clip-path="url(#206)"></g><g clip-path="url(#207)"></g><g clip-path="url(#208)"></g><g clip-path="url(#209)"></g><g clip-path="url(#210)"></g><g clip-path="url(#211)"></g><g clip-path="url(#212)"></g><g clip-path="url(#213)"></g><g clip-path="url(#214)"></g><g clip-path="url(#215)"></g><g clip-path="url(#216)"></g><g clip-path="url(#217)"></g><g clip-path="url(#218)"></g><g clip-path="url(#219)"></g><g clip-path="url(#220)"></g><g clip-path="url(#221)"></g><g clip-path="url(#222)"></g></g><g clip-path="url(#223)"><g clip-path="url(#224)"></g><g clip-path="url(#225)"></g><g clip-path="url(#226)"></g><g clip-path="url(#227)"></g><g clip-path="url(#228)"></g><g clip-path="url(#229)"></g><g clip-path="url(#230)"></g><g clip-path="url(#231)"></g><g clip-path="url(#232)"></g><g clip-path="url(#233)"></g><g clip-path="url(#234)"></g><g clip-path="url(#235)"></g><g clip-path="url(#236)"></g><g clip-path="url(#237)"></g><g clip-path="url(#238)"></g><g clip-path="url(#239)"></g><g clip-path="url(#240)"></g><g clip-path="url(#241)"></g><g clip-path="url(#242)"></g><g clip-path="url(#243)"></g><g clip-path="url(#244)"></g><g clip-path="url(#245)"></g><g clip-path="url(#246)"></g><g clip-path="url(#247)"></g><g clip-path="url(#248)"></g><g clip-path="url(#249)"></g><g clip-path="url(#250)"></g><g clip-path="url(#251)"></g></g><path id="965" transform="matrix(1 0 0 -1 0 841)" d="M34.2 707.49C 34.2 708.47 152.22 709.27 297.8 709.27C 443.38 709.27 561.4 708.47 561.4 707.49C 561.4 706.51 443.38 705.72 297.8 705.72C 152.22 705.72 34.2 706.51 34.2 707.49z" stroke="none" fill="#00B0F0" fill-rule="evenodd" /><g clip-path="url(#252)"><g transform="matrix(0.3606091 0 0 0.3652174 260.4 103.24)"><g transform="matrix(1 0 0 1 0 0)"><image x="0" y="0" xlink:href="img_10.png" width="197" height="69" /></g></g></g><g clip-path="url(#253)"></g><g clip-path="url(#254)"></g><g clip-path="url(#255)"></g><path id="971" transform="matrix(1 0 0 -1 0 841)" d="M253.18 718.1C 256.35 723.45 256.35 723.45 256.35 723.45C 256.35 726.86 256.35 726.86 256.35 726.86C 258.3 726.86 258.3 726.86 258.3 726.86C 258.3 723.45 258.3 723.45 258.3 723.45C 261.46 718.1 261.46 718.1 261.46 718.1L261.46 718.1L253.18 718.1zM264.14 715.67C 259.27 723.7 259.27 723.7 259.27 723.7C 259.27 726.86 259.27 726.86 259.27 726.86C 259.76 726.86 259.76 726.86 259.76 726.86C 260 726.86 260.25 727.1 260.25 727.35C 260.25 727.59 260 727.83 259.76 727.83C 254.89 727.83 254.89 727.83 254.89 727.83C 254.64 727.83 254.4 727.59 254.4 727.35C 254.4 727.1 254.64 726.86 254.89 726.86C 255.37 726.86 255.37 726.86 255.37 726.86C 255.37 723.7 255.37 723.7 255.37 723.7C 250.5 715.67 250.5 715.67 250.5 715.67C 249.53 713.72 250.26 712.26 252.45 712.26C 262.19 712.26 262.19 712.26 262.19 712.26C 264.39 712.26 265.12 713.72 264.14 715.67" stroke="none" fill="#00B0F0" fill-rule="evenodd" /><path id="972" transform="matrix(1 0 0 -1 0 841)" d="M33.2 437.41C 33.2 438.39 151.22 439.18 296.8 439.18C 442.38 439.18 560.4 438.39 560.4 437.41C 560.4 436.43 442.38 435.63 296.8 435.63C 151.22 435.63 33.2 436.43 33.2 437.41z" stroke="none" fill="#00B0F0" fill-rule="evenodd" /><g clip-path="url(#256)"><g transform="matrix(0.3605382 0 0 0.3613187 266.64 377.8)"><g transform="matrix(1 0 0 1 0 0)"><image x="0" y="0" xlink:href="img_11.png" width="223" height="91" /></g></g></g><g clip-path="url(#257)"></g><g clip-path="url(#258)"></g><g clip-path="url(#259)"></g><path id="978" transform="matrix(1 0 0 -1 0 841)" d="M261.05 449.06C 261.05 449.06 261.05 449.06 261.05 449.06M261.05 449.06C 255.44 450.9 255.44 450.9 255.44 450.9C 255.44 449.52 255.44 449.52 255.44 449.52C 255.75 449.21 255.9 448.82 255.9 448.44C 255.9 448.05 255.75 447.67 255.52 447.44C 255.59 447.21 255.75 446.98 255.9 446.9C 259.2 445.13 263.66 445.13 267.26 447.13C 267.57 447.28 267.73 447.59 267.73 447.9C 267.73 450.98 267.73 450.98 267.73 450.98C 262.04 449.06 262.04 449.06 262.04 449.06C 261.43 448.82 261.58 448.82 261.05 449.06C 261.05 449.06 261.05 449.06 261.05 449.06zM270.8 453.98C 261.97 457.07 261.97 457.07 261.97 457.07C 261.43 457.22 261.51 457.22 260.97 457.07C 252.06 453.98 252.06 453.98 252.06 453.98C 251.45 453.83 251.45 453.45 252.06 453.29C 254.14 452.52 254.14 452.52 254.14 452.52C 253.21 451.6 253.14 450.67 253.14 449.59C 252.75 449.44 252.52 449.06 252.52 448.67C 252.52 448.29 252.75 447.98 253.06 447.82C 252.91 446.67 252.45 445.44 251.22 443.9C 251.83 443.43 252.14 443.28 252.68 443.05C 254.44 443.82 254.21 445.9 254.06 447.9C 254.29 448.05 254.44 448.36 254.44 448.67C 254.44 449.06 254.29 449.36 253.98 449.52C 254.06 450.6 254.29 451.52 255.06 452.14C 255.06 452.21 255.13 452.21 255.13 452.21C 261.28 454.68 261.28 454.68 261.28 454.68C 261.51 454.76 261.74 454.68 261.81 454.45C 261.81 454.45 261.81 454.45 261.81 454.45C 261.89 454.22 261.81 453.91 261.58 453.83C 256.44 451.75 256.44 451.75 256.44 451.75C 261.05 450.21 261.05 450.21 261.05 450.21C 261.58 449.98 261.51 449.98 262.04 450.21C 270.87 453.21 270.87 453.21 270.87 453.21C 271.41 453.45 271.41 453.75 270.8 453.98C 270.8 453.98 270.8 453.98 270.8 453.98z" stroke="none" fill="#00B0F0" fill-rule="evenodd" /></g></g></svg>